{
.appVersion = "3259";
.formatVersion = 3;
DisplayStrings = (
"74,17",
O,
"˝",
"¯",
"¯Ī",
"¯Ī",
"iī"
);
customParameters = (
{
name = "Use Typo Metrics";
value = 1;
}
);
date = "2024-04-19 11:50:45 +0000";
familyName = Brokken;
fontMaster = (
{
customParameters = (
{
name = hheaAscender;
value = 1200;
},
{
name = hheaDescender;
value = -400;
},
{
name = hheaLineGap;
value = 220;
},
{
name = typoAscender;
value = 1200;
},
{
name = typoDescender;
value = -400;
},
{
name = typoLineGap;
value = 220;
},
{
name = winAscent;
value = 1200;
},
{
name = winDescent;
value = 400;
}
);
id = m01;
metricValues = (
{
over = 20;
pos = 892;
},
{
over = 20;
pos = 850;
},
{
over = 20;
pos = 650;
},
{
over = -20;
},
{
over = -20;
pos = -300;
}
);
name = Regular;
stemValues = (
230,
195,
200,
146
);
userData = {
GSCornerRadius = 15;
GSExtrudeAngle = 0;
GSExtrudeDontSubtract = 1;
GSExtrudeOffset = 250;
GSOffsetHorizontal = -30;
GSOffsetVertical = -10;
};
}
);
glyphs = (
{
glyphname = A;
lastChange = "2024-04-30 18:22:21 +0000";
layers = (
{
anchors = (
{
name = bottom;
pos = (390,0);
},
{
name = ogonek;
pos = (702,10);
},
{
name = top;
pos = (445,892);
}
);
layerId = m01;
shapes = (
{
closed = 1;
nodes = (
(292,18,l),
(286,569,l),
(501,825,l),
(399,889,l),
(107,778,l),
(123,170,l),
(78,46,l),
(151,-63,l)
);
},
{
closed = 1;
nodes = (
(485,260,l),
(536,393,l),
(554,439,l),
(81,300,l),
(57,191,l),
(100,178,l)
);
},
{
closed = 1;
nodes = (
(750,827,l),
(705,870,l),
(693,882,l),
(370,847,l),
(242,615,l),
(664,710,l),
(736,841,l)
);
},
{
closed = 1;
nodes = (
(736,841,l),
(693,882,l),
(705,870,l),
(499,796,l),
(513,204,l),
(525,18,l),
(580,-50,l),
(730,30,l),
(713,638,l),
(750,827,l)
);
},
{
closed = 1;
nodes = (
(730,30,l),
(719,91,l),
(524,80,l),
(491,39,l),
(487,-31,l),
(580,-50,l)
);
}
);
width = 780;
}
);
unicode = 65;
},
{
glyphname = AE;
lastChange = "2024-05-01 09:16:15 +0000";
layers = (
{
anchors = (
{
name = top;
pos = (658,892);
}
);
layerId = m01;
shapes = (
{
closed = 1;
nodes = (
(316,-6,l),
(301,586,l),
(524,825,l),
(376,892,l),
(130,778,l),
(146,170,l),
(102,22,l),
(175,-87,l)
);
},
{
closed = 1;
nodes = (
(476,240,l),
(548,352,l),
(528,463,l),
(108,337,l),
(57,207,l),
(91,158,l)
);
},
{
closed = 1;
nodes = (
(773,827,l),
(728,870,l),
(716,882,l),
(393,847,l),
(265,615,l),
(687,710,l),
(759,841,l)
);
},
{
closed = 1;
nodes = (
(759,841,l),
(716,882,l),
(728,870,l),
(524,801,l),
(538,209,l),
(550,23,l),
(618,-9,l),
(753,30,l),
(736,638,l),
(773,827,l)
);
},
{
closed = 1;
nodes = (
(537,-30,l),
(918,-30,l),
(1092,163,l),
(1072,233,l),
(746,149,l),
(736,649,l),
(881,892,l),
(812,940,l),
(520,829,l),
(536,221,l),
(495,10,l)
);
},
{
closed = 1;
nodes = (
(864,342,l),
(1046,483,l),
(1026,594,l),
(539,469,l),
(598,414,l),
(609,362,l)
);
},
{
closed = 1;
nodes = (
(955,685,l),
(1122,837,l),
(1102,948,l),
(615,822,l),
(539,685,l)
);
},
{
closed = 1;
nodes = (
(486,822,l),
(496,686,l),
(559,644,l),
(619,651,l),
(872,902,l)
);
}
);
width = 1122;
}
);
metricLeft = A;
metricRight = E;
unicode = 198;
},
{
glyphname = B;
lastChange = "2024-04-30 18:40:00 +0000";
layers = (
{
layerId = m01;
shapes = (
{
closed = 1;
nodes = (
(108,-4,l),
(304,41,l),
(286,649,l),
(472,821,l),
(399,889,l),
(107,778,l),
(123,226,l),
(83,23,l)
);
},
{
closed = 1;
nodes = (
(581,-33,l),
(706,0,l),
(673,181,l),
(231,108,l),
(130,20,l),
(155,-59,l)
);
},
{
closed = 1;
nodes = (
(499,378,l),
(573,506,l),
(569,562,l),
(90,435,l),
(39,305,l),
(72,256,l)
);
},
{
closed = 1;
nodes = (
(760,322,l),
(673,483,l),
(516,433,l),
(646,164,l),
(706,0,l)
);
},
{
closed = 1;
nodes = (
(673,483,l),
(785,730,l),
(720,896,l),
(374,832,l),
(193,651,l),
(557,680,l),
(443,382,l)
);
},
{
closed = 1;
nodes = (
(13,809,l),
(23,673,l),
(86,631,l),
(146,638,l),
(399,889,l)
);
}
);
width = 795;
}
);
unicode = 66;
},
{
glyphname = C;
lastChange = "2024-04-30 18:35:19 +0000";
layers = (
{
anchors = (
{
name = bottom;
pos = (334,0);
},
{
name = top;
pos = (334,892);
}
);
layerId = m01;
shapes = (
{
closed = 1;
nodes = (
(17,551,l),
(97,44,l),
(357,44,l),
(158,612,l),
(308,673,l),
(436,828,l),
(329,868,l),
(97,745,l)
);
},
{
closed = 1;
nodes = (
(651,156,l),
(625,241,l),
(520,201,l),
(250,75,l),
(97,44,l),
(159,-25,l),
(438,-37,l)
);
},
{
closed = 1;
nodes = (
(395,705,l),
(559,618,l),
(666,673,l),
(666,782,l),
(537,787,l)
);
},
{
closed = 1;
nodes = (
(409,143,l),
(511,97,l),
(627,88,l),
(672,217,l),
(658,307,l),
(459,277,l)
);
},
{
closed = 1;
nodes = (
(490,877,l),
(175,754,l),
(80,622,l),
(142,575,l),
(666,782,l),
(545,849,l)
);
}
);
width = 693;
}
);
unicode = 67;
},
{
glyphname = D;
lastChange = "2024-04-30 18:42:08 +0000";
layers = (
{
anchors = (
{
name = top;
pos = (360,892);
}
);
layerId = m01;
shapes = (
{
closed = 1;
nodes = (
(547,0,l),
(796,307,l),
(809,668,l),
(523,892,l),
(280,870,l),
(295,686,l),
(523,709,l),
(607,709,l),
(579,382,l),
(497,155,l),
(138,156,l),
(360,-26,l)
);
},
{
closed = 1;
nodes = (
(144,-7,l),
(309,208,l),
(296,746,l),
(111,852,l),
(115,829,l),
(118,214,l),
(101,26,l)
);
},
{
closed = 1;
nodes = (
(157,660,l),
(561,791,l),
(309,892,l),
(62,876,l),
(0,698,l),
(63,653,l)
);
},
{
closed = 1;
nodes = (
(79,143,l),
(39,100,l),
(84,-22,l),
(360,-26,l),
(431,36,l),
(352,127,l),
(138,156,l)
);
}
);
width = 829;
}
);
unicode = 68;
},
{
glyphname = E;
lastChange = "2024-04-30 18:19:15 +0000";
layers = (
{
anchors = (
{
name = bottom;
pos = (300,0);
},
{
name = ogonek;
pos = (567,10);
},
{
name = top;
pos = (358,923);
},
{
name = topleft;
pos = (-14,850);
}
);
layerId = m01;
shapes = (
{
closed = 1;
nodes = (
(116,-30,l),
(497,-30,l),
(671,163,l),
(644,202,l),
(318,118,l),
(315,649,l),
(460,892,l),
(391,940,l),
(99,829,l),
(115,221,l),
(74,10,l)
);
},
{
closed = 1;
nodes = (
(443,342,l),
(625,483,l),
(605,594,l),
(118,469,l),
(60,443,l),
(13,342,l)
);
},
{
closed = 1;
nodes = (
(534,685,l),
(701,837,l),
(681,948,l),
(194,822,l),
(118,685,l)
);
},
{
closed = 1;
nodes = (
(21,822,l),
(31,686,l),
(94,644,l),
(154,651,l),
(407,902,l)
);
},
{
closed = 1;
nodes = (
(423,118,l),
(586,95,l),
(671,163,l),
(662,290,l),
(468,260,l)
);
}
);
width = 701;
}
);
metricLeft = B;
unicode = 69;
},
{
glyphname = F;
lastChange = "2024-04-30 15:49:28 +0000";
layers = (
{
layerId = m01;
shapes = (
{
closed = 1;
nodes = (
(65,7,l),
(299,60,l),
(284,634,l),
(517,854,l),
(342,902,l),
(82,817,l),
(98,227,l),
(57,23,l)
);
},
{
closed = 1;
nodes = (
(377,29,l),
(375,123,l),
(260,185,l),
(80,83,l),
(102,-28,l)
);
},
{
closed = 1;
nodes = (
(58,305,l),
(435,305,l),
(604,432,l),
(584,543,l),
(101,418,l),
(42,346,l)
);
},
{
closed = 1;
nodes = (
(507,663,l),
(680,786,l),
(660,897,l),
(101,774,l),
(102,650,l)
);
},
{
closed = 1;
nodes = (
(281,702,l),
(281,799,l),
(142,836,l),
(35,802,l),
(13,689,l),
(107,675,l)
);
}
);
width = 680;
}
);
metricLeft = B;
unicode = 70;
},
{
glyphname = G;
lastChange = "2024-04-30 18:31:20 +0000";
layers = (
{
layerId = m01;
shapes = (
{
closed = 1;
nodes = (
(137,-58,l),
(357,34,l),
(324,630,l),
(454,829,l),
(399,889,l),
(107,778,l),
(123,170,l),
(82,61,l)
);
},
{
closed = 1;
nodes = (
(632,6,l),
(647,139,l),
(123,69,l),
(249,-67,l)
);
},
{
closed = 1;
nodes = (
(741,-8,l),
(787,186,l),
(660,362,l),
(588,347,l),
(571,114,l),
(523,37,l),
(605,-44,l)
);
},
{
closed = 1;
nodes = (
(771,284,l),
(771,441,l),
(468,418,l),
(486,332,l),
(543,279,l)
);
},
{
closed = 1;
nodes = (
(771,729,l),
(662,794,l),
(538,638,l),
(540,554,l),
(694,493,l)
);
},
{
closed = 1;
nodes = (
(660,732,l),
(771,729,l),
(704,888,l),
(357,848,l),
(266,648,l)
);
}
);
width = 832;
}
);
unicode = 71;
},
{
glyphname = H;
lastChange = "2024-04-30 15:49:09 +0000";
layers = (
{
anchors = (
{
name = top;
pos = (402,868);
}
);
layerId = m01;
shapes = (
{
closed = 1;
nodes = (
(100,-69,l),
(301,0,l),
(286,592,l),
(331,829,l),
(90,778,l),
(106,170,l),
(66,-35,l)
);
},
{
closed = 1;
nodes = (
(258,253,l),
(281,435,l),
(163,427,l),
(40,387,l),
(46,196,l)
);
},
{
closed = 1;
nodes = (
(595,339,l),
(607,467,l),
(169,405,l),
(191,227,l)
);
},
{
closed = 1;
nodes = (
(258,643,l),
(331,829,l),
(136,854,l),
(13,814,l),
(19,623,l)
);
},
{
closed = 1;
nodes = (
(714,11,l),
(697,619,l),
(697,831,l),
(493,743,l),
(497,79,l),
(482,16,l),
(543,-35,l)
);
},
{
closed = 1;
nodes = (
(467,778,l),
(517,657,l),
(672,647,l),
(743,709,l),
(737,832,l),
(493,827,l)
);
}
);
width = 763;
}
);
metricLeft = B;
unicode = 72;
},
{
glyphname = I;
lastChange = "2024-04-30 15:49:54 +0000";
layers = (
{
anchors = (
{
name = bottom;
pos = (187,0);
},
{
name = ogonek;
pos = (365,10);
},
{
name = top;
pos = (219,908);
},
{
name = topleft;
pos = (-16,850);
}
);
layerId = m01;
shapes = (
{
closed = 1;
nodes = (
(18,759,l),
(51,709,l),
(116,701,l),
(179,769,l),
(292,835,l),
(253,888,l),
(92,880,l),
(13,850,l)
);
},
{
closed = 1;
nodes = (
(84,-59,l),
(305,-24,l),
(306,592,l),
(354,840,l),
(327,879,l),
(73,808,l),
(71,146,l),
(32,-24,l)
);
},
{
closed = 1;
nodes = (
(275,151,l),
(114,159,l),
(75,106,l),
(188,40,l),
(251,-28,l),
(316,-20,l),
(349,30,l),
(354,121,l)
);
}
);
width = 390;
}
);
metricLeft = B;
unicode = 73;
},
{
glyphname = J;
lastChange = "2024-05-01 08:20:58 +0000";
layers = (
{
anchors = (
{
name = bottom;
pos = (358,0);
},
{
name = top;
pos = (472,850);
}
);
layerId = m01;
shapes = (
{
closed = 1;
nodes = (
(623,-2,l),
(643,682,l),
(713,836,l),
(659,893,l),
(556,848,l),
(389,776,l),
(409,591,l),
(395,-2,l),
(449,-71,l)
);
},
{
closed = 1;
nodes = (
(295,80,l),
(205,337,l),
(151,361,l),
(24,186,l),
(70,-8,l),
(207,-44,l)
);
},
{
closed = 1;
nodes = (
(612,0,l),
(531,212,l),
(99,28,l),
(127,-77,l)
);
}
);
width = 716;
}
);
unicode = 74;
},
{
glyphname = K;
lastChange = "2024-04-30 15:49:45 +0000";
layers = (
{
layerId = m01;
shapes = (
{
closed = 1;
nodes = (
(120,-49,l),
(314,-10,l),
(301,561,l),
(320,850,l),
(97,778,l),
(113,170,l),
(75,-2,l)
);
},
{
closed = 1;
nodes = (
(681,-14,l),
(680,128,l),
(510,371,l),
(415,404,l),
(243,332,l),
(289,265,l),
(408,239,l),
(524,-35,l)
);
},
{
closed = 1;
nodes = (
(432,323,l),
(442,424,l),
(472,549,l),
(52,423,l),
(13,291,l),
(46,242,l)
);
},
{
closed = 1;
nodes = (
(756,704,l),
(764,839,l),
(624,878,l),
(544,839,l),
(266,387,l),
(393,333,l)
);
},
{
closed = 1;
nodes = (
(51,718,l),
(166,650,l),
(301,561,l),
(320,850,l),
(244,892,l),
(19,861,l)
);
},
{
closed = 1;
nodes = (
(524,-35,l),
(681,-14,l),
(763,-3,l),
(759,122,l),
(617,164,l),
(524,107,l)
);
}
);
width = 780;
}
);
metricLeft = B;
unicode = 75;
},
{
glyphname = L;
lastChange = "2024-04-30 15:50:07 +0000";
layers = (
{
layerId = m01;
shapes = (
{
closed = 1;
nodes = (
(67,-38,l),
(392,-38,l),
(604,130,l),
(584,241,l),
(280,175,l),
(258,648,l),
(332,828,l),
(295,898,l),
(61,778,l),
(77,213,l),
(35,-4,l)
);
},
{
closed = 1;
nodes = (
(13,855,l),
(15,761,l),
(130,699,l),
(310,801,l),
(288,912,l)
);
}
);
width = 604;
}
);
metricLeft = B;
unicode = 76;
},
{
glyphname = M;
lastChange = "2024-04-30 18:08:44 +0000";
layers = (
{
layerId = m01;
shapes = (
{
closed = 1;
nodes = (
(668,29,l),
(815,689,l),
(1064,777,l),
(861,864,l),
(665,794,l),
(507,-26,l)
);
},
{
closed = 1;
nodes = (
(318,8,l),
(344,81,l),
(344,223,l),
(133,130,l),
(82,0,l),
(115,-49,l)
);
},
{
closed = 1;
nodes = (
(354,52,l),
(339,584,l),
(401,806,l),
(428,817,l),
(371,882,l),
(123,770,l),
(139,222,l),
(123,52,l),
(169,-7,l)
);
},
{
closed = 1;
nodes = (
(1029,30,l),
(1014,584,l),
(1064,777,l),
(830,737,l),
(804,161,l),
(768,92,l),
(823,-29,l)
);
},
{
closed = 1;
nodes = (
(82,650,l),
(166,575,l),
(189,509,l),
(333,809,l),
(371,882,l),
(79,808,l)
);
},
{
closed = 1;
nodes = (
(451,860,l),
(334,818,l),
(507,-26,l),
(620,233,l),
(477,834,l)
);
}
);
width = 1084;
}
);
metricRight = H;
unicode = 77;
},
{
glyphname = N;
lastChange = "2024-04-30 18:12:43 +0000";
layers = (
{
anchors = (
{
name = bottom;
pos = (446,0);
},
{
name = top;
pos = (522,890);
}
);
layerId = m01;
shapes = (
{
closed = 1;
nodes = (
(642,213,l),
(315,896,l),
(273,697,l),
(568,-22,l)
);
},
{
closed = 1;
nodes = (
(140,-39,l),
(348,32,l),
(340,580,l),
(269,840,l),
(107,778,l),
(123,189,l),
(87,5,l)
);
},
{
closed = 1;
nodes = (
(40,839,l),
(42,745,l),
(157,683,l),
(337,785,l),
(315,896,l)
);
},
{
closed = 1;
nodes = (
(831,892,l),
(634,816,l),
(649,243,l),
(568,-22,l),
(843,56,l),
(827,644,l),
(877,830,l)
);
}
);
width = 897;
}
);
metricRight = H;
unicode = 78;
},
{
glyphname = O;
lastChange = "2024-05-01 09:16:03 +0000";
layers = (
{
anchors = (
{
name = bottom;
pos = (311,0);
},
{
name = center;
pos = (311,389);
},
{
name = ogonek;
pos = (632,11);
},
{
name = top;
pos = (361,919);
},
{
name = topleft;
pos = (-68,778);
},
{
name = topright;
pos = (690,778);
}
);
layerId = m01;
shapes = (
{
closed = 1;
nodes = (
(163,650,l),
(356,850,l),
(309,889,l),
(17,778,l),
(33,194,l),
(38,105,l),
(267,24,l)
);
},
{
closed = 1;
nodes = (
(664,0,l),
(473,127,l),
(53,136,l),
(134,-57,l)
);
},
{
closed = 1;
nodes = (
(690,711,l),
(565,721,l),
(468,84,l),
(664,0,l)
);
},
{
closed = 1;
nodes = (
(657,680,l),
(690,711,l),
(598,874,l),
(267,848,l),
(94,613,l)
);
}
);
width = 716;
}
);
metricLeft = C;
unicode = 79;
},
{
glyphname = Oslash;
lastChange = "2024-05-01 09:16:15 +0000";
layers = (
{
layerId = m01;
shapes = (
{
closed = 1;
nodes = (
(163,650,l),
(356,850,l),
(309,889,l),
(17,778,l),
(33,170,l),
(38,81,l),
(267,0,l)
);
},
{
closed = 1;
nodes = (
(664,-24,l),
(473,103,l),
(53,112,l),
(134,-81,l)
);
},
{
closed = 1;
nodes = (
(690,711,l),
(565,721,l),
(468,60,l),
(664,-24,l)
);
},
{
closed = 1;
nodes = (
(657,680,l),
(690,711,l),
(578,857,l),
(267,848,l),
(94,613,l)
);
},
{
closed = 1;
nodes = (
(222,-134,l),
(618,757,l),
(654,817,l),
(599,883,l),
(535,894,l),
(489,793,l),
(65,-114,l),
(109,-182,l)
);
}
);
width = 716;
}
);
metricLeft = O;
metricRight = O;
unicode = 216;
},
{
glyphname = OE;
lastChange = "2024-05-01 09:16:15 +0000";
layers = (
{
anchors = (
{
name = bottom;
pos = (311,0);
},
{
name = center;
pos = (311,389);
},
{
name = ogonek;
pos = (632,11);
},
{
name = top;
pos = (518,928);
},
{
name = topleft;
pos = (-68,778);
},
{
name = topright;
pos = (690,778);
}
);
layerId = m01;
shapes = (
{
closed = 1;
nodes = (
(163,650,l),
(356,850,l),
(309,889,l),
(17,778,l),
(33,170,l),
(38,81,l),
(267,0,l)
);
},
{
closed = 1;
nodes = (
(664,-24,l),
(473,103,l),
(53,112,l),
(134,-81,l)
);
},
{
closed = 1;
nodes = (
(690,711,l),
(565,721,l),
(468,60,l),
(664,-24,l)
);
},
{
closed = 1;
nodes = (
(657,680,l),
(690,711,l),
(616,837,l),
(267,848,l),
(94,613,l)
);
},
{
closed = 1;
nodes = (
(519,-30,l),
(900,-30,l),
(1074,163,l),
(1044,221,l),
(718,137,l),
(718,649,l),
(863,892,l),
(794,940,l),
(502,829,l),
(518,221,l),
(477,10,l)
);
},
{
closed = 1;
nodes = (
(846,342,l),
(1028,483,l),
(1008,594,l),
(521,469,l),
(566,455,l),
(519,354,l)
);
},
{
closed = 1;
nodes = (
(937,685,l),
(1104,837,l),
(1084,948,l),
(597,822,l),
(521,685,l)
);
},
{
closed = 1;
nodes = (
(424,822,l),
(434,686,l),
(497,644,l),
(557,651,l),
(810,902,l)
);
}
);
width = 1104;
}
);
metricLeft = O;
metricRight = E;
unicode = 338;
},
{
glyphname = P;
kernRight = P;
lastChange = "2024-05-01 08:18:40 +0000";
layers = (
{
layerId = m01;
shapes = (
{
closed = 1;
nodes = (
(72,-56,l),
(305,16,l),
(291,650,l),
(462,809,l),
(377,889,l),
(85,778,l),
(101,170,l),
(59,-26,l)
);
},
{
closed = 1;
nodes = (
(664,323,l),
(560,493,l),
(196,311,l),
(221,253,l)
);
},
{
closed = 1;
nodes = (
(750,729,l),
(575,746,l),
(501,426,l),
(664,323,l)
);
},
{
closed = 1;
nodes = (
(698,722,l),
(750,729,l),
(684,888,l),
(324,814,l),
(257,622,l)
);
},
{
closed = 1;
nodes = (
(378,-28,l),
(376,66,l),
(261,128,l),
(81,26,l),
(103,-85,l)
);
},
{
closed = 1;
nodes = (
(86,585,l),
(307,630,l),
(305,724,l),
(85,778,l),
(13,746,l),
(25,611,l)
);
}
);
width = 765;
}
);
metricLeft = B;
unicode = 80;
},
{
glyphname = Q;
lastChange = "2024-05-01 09:16:15 +0000";
layers = (
{
layerId = m01;
shapes = (
{
closed = 1;
nodes = (
(205,665,l),
(439,827,l),
(309,889,l),
(17,778,l),
(33,210,l),
(39,121,l),
(233,69,l)
);
},
{
closed = 1;
nodes = (
(705,16,l),
(514,143,l),
(79,152,l),
(159,-41,l)
);
},
{
closed = 1;
nodes = (
(658,-41,l),
(493,160,l),
(457,295,l),
(304,332,l),
(259,283,l),
(489,-76,l),
(613,-108,l)
);
},
{
closed = 1;
nodes = (
(731,711,l),
(544,678,l),
(589,627,l),
(536,535,l),
(509,99,l),
(705,16,l)
);
},
{
closed = 1;
nodes = (
(698,680,l),
(731,711,l),
(640,874,l),
(175,827,l),
(292,650,l)
);
}
);
width = 757;
}
);
metricLeft = O;
metricRight = O;
unicode = 81;
},
{
glyphname = R;
lastChange = "2024-04-30 15:50:29 +0000";
layers = (
{
anchors = (
{
name = bottom;
pos = (388,0);
},
{
name = top;
pos = (429,875);
}
);
layerId = m01;
shapes = (
{
closed = 1;
nodes = (
(169,-37,l),
(324,-5,l),
(309,587,l),
(393,889,l),
(101,778,l),
(117,170,l),
(90,-5,l)
);
},
{
closed = 1;
nodes = (
(690,-77,l),
(677,77,l),
(584,230,l),
(456,265,l),
(494,306,l),
(320,243,l),
(550,-116,l)
);
},
{
closed = 1;
nodes = (
(670,303,l),
(685,403,l),
(201,330,l),
(220,180,l)
);
},
{
closed = 1;
nodes = (
(782,740,l),
(697,815,l),
(585,772,l),
(528,370,l),
(670,303,l)
);
},
{
closed = 1;
nodes = (
(736,759,l),
(782,740,l),
(716,899,l),
(351,848,l),
(279,648,l)
);
},
{
closed = 1;
nodes = (
(45,643,l),
(160,575,l),
(295,486,l),
(439,786,l),
(393,889,l),
(13,786,l)
);
},
{
closed = 1;
nodes = (
(550,-116,l),
(699,-103,l),
(749,-65,l),
(746,33,l),
(730,52,l),
(612,52,l)
);
}
);
width = 782;
}
);
metricLeft = B;
unicode = 82;
},
{
glyphname = S;
lastChange = "2024-04-30 18:40:28 +0000";
layers = (
{
anchors = (
{
name = bottom;
pos = (334,0);
},
{
name = top;
pos = (338,892);
}
);
layerId = m01;
shapes = (
{
closed = 1;
nodes = (
(256,809,l),
(409,867,l),
(82,756,l),
(54,391,l),
(194,355,l),
(272,391,l)
);
},
{
closed = 1;
nodes = (
(607,28,l),
(212,173,l),
(42,104,l),
(41,-39,l),
(283,-81,l)
);
},
{
closed = 1;
nodes = (
(607,28,l),
(633,432,l),
(459,394,l),
(310,-60,l)
);
},
{
closed = 1;
nodes = (
(633,432,l),
(530,513,l),
(56,418,l),
(53,338,l),
(482,294,l)
);
},
{
closed = 1;
nodes = (
(607,616,l),
(652,764,l),
(632,875,l),
(409,867,l),
(166,815,l),
(147,753,l),
(228,676,l),
(426,738,l),
(478,570,l)
);
}
);
width = 668;
}
);
unicode = 83;
},
{
glyphname = T;
kernRight = P;
lastChange = "2024-05-01 09:20:20 +0000";
layers = (
{
anchors = (
{
name = bottom;
pos = (384,0);
},
{
name = center;
pos = (384,425);
},
{
name = top;
pos = (384,871);
}
);
layerId = m01;
shapes = (
{
closed = 1;
nodes = (
(516,-3,l),
(550,70,l),
(509,167,l),
(498,753,l),
(286,716,l),
(302,178,l),
(269,0,l),
(334,-59,l)
);
},
{
closed = 1;
nodes = (
(390,659,l),
(713,681,l),
(768,778,l),
(712,889,l),
(81,801,l),
(0,653,l),
(63,604,l)
);
},
{
closed = 1;
nodes = (
(713,784,l),
(712,889,l),
(146,854,l),
(116,766,l)
);
}
);
width = 768;
}
);
unicode = 84;
},
{
glyphname = U;
lastChange = "2024-04-30 18:40:45 +0000";
layers = (
{
anchors = (
{
name = bottom;
pos = (380,0);
},
{
name = ogonek;
pos = (692,10);
},
{
name = top;
pos = (403,912);
},
{
name = topright;
pos = (750,850);
}
);
layerId = m01;
shapes = (
{
closed = 1;
nodes = (
(694,123,l),
(703,638,l),
(736,819,l),
(689,871,l),
(470,808,l),
(482,171,l),
(482,87,l),
(316,173,l),
(315,172,l),
(309,689,l),
(331,802,l),
(290,882,l),
(75,778,l),
(82,238,l),
(82,22,l),
(141,-16,l),
(167,-63,l),
(609,0,l)
);
},
{
closed = 1;
nodes = (
(110,618,l),
(242,692,l),
(290,882,l),
(120,854,l),
(24,813,l),
(13,714,l)
);
}
);
width = 756;
}
);
metricLeft = B;
metricRight = H;
unicode = 85;
},
{
glyphname = V;
lastChange = "2024-04-21 11:25:13 +0000";
layers = (
{
layerId = m01;
shapes = (
{
closed = 1;
nodes = (
(869,778,l),
(788,883,l),
(724,883,l),
(539,778,l),
(539,714,l),
(473,210,l),
(342,276,l),
(497,-126,l)
);
},
{
closed = 1;
nodes = (
(502,43,l),
(302,602,l),
(273,684,l),
(273,789,l),
(239,831,l),
(39,718,l),
(249,30,l),
(497,-126,l)
);
},
{
closed = 1;
nodes = (
(314,701,l),
(358,792,l),
(239,889,l),
(39,718,l),
(111,642,l)
);
}
);
width = 872;
}
);
unicode = 86;
},
{
glyphname = W;
lastChange = "2024-04-30 15:51:38 +0000";
layers = (
{
anchors = (
{
name = bottom;
pos = (565,0);
},
{
name = top;
pos = (565,892);
}
);
layerId = m01;
shapes = (
{
closed = 1;
nodes = (
(1086,749,l),
(1000,877,l),
(863,901,l),
(797,790,l),
(861,668,l),
(753,159,l),
(668,135,l),
(869,-37,l)
);
},
{
closed = 1;
nodes = (
(485,-8,l),
(415,185,l),
(244,761,l),
(271,861,l),
(222,897,l),
(39,784,l),
(238,148,l),
(352,-8,l)
);
},
{
closed = 1;
nodes = (
(663,453,l),
(582,559,l),
(557,600,l),
(497,600,l),
(518,388,l),
(400,216,l),
(324,356,l),
(485,-8,l)
);
},
{
closed = 1;
nodes = (
(869,-37,l),
(837,146,l),
(578,698,l),
(478,690,l),
(439,588,l),
(634,135,l),
(771,-37,l)
);
}
);
width = 1089;
}
);
metricLeft = V;
metricRight = V;
unicode = 87;
},
{
glyphname = X;
lastChange = "2024-04-30 15:52:08 +0000";
layers = (
{
layerId = m01;
shapes = (
{
closed = 1;
nodes = (
(647,-10,l),
(635,143,l),
(566,228,l),
(296,718,l),
(242,857,l),
(155,904,l),
(28,796,l),
(13,720,l),
(454,0,l),
(535,-44,l)
);
},
{
closed = 1;
nodes = (
(341,77,l),
(271,244,l),
(295,388,l),
(128,361,l),
(68,206,l),
(33,26,l),
(54,-16,l),
(114,-51,l)
);
},
{
closed = 1;
nodes = (
(296,717,l),
(243,856,l),
(155,904,l),
(62,854,l),
(77,787,l),
(167,675,l)
);
},
{
closed = 1;
nodes = (
(559,496,l),
(619,651,l),
(655,831,l),
(634,873,l),
(574,908,l),
(393,793,l),
(376,466,l)
);
}
);
width = 691;
}
);
metricLeft = I;
metricRight = I;
unicode = 88;
},
{
glyphname = Y;
kernRight = P;
lastChange = "2024-05-01 08:19:19 +0000";
layers = (
{
anchors = (
{
name = bottom;
pos = (359,0);
},
{
name = top;
pos = (395,892);
},
{
name = topleft;
pos = (20,850);
}
);
layerId = m01;
shapes = (
{
closed = 1;
nodes = (
(458,297,l),
(708,784,l),
(708,850,l),
(589,909,l),
(458,841,l),
(300,316,l)
);
},
{
closed = 1;
nodes = (
(269,-64,l),
(492,0,l),
(439,200,l),
(496,497,l),
(228,370,l),
(269,157,l),
(224,-26,l)
);
},
{
closed = 1;
nodes = (
(342,329,l),
(208,818,l),
(220,890,l),
(20,697,l),
(169,327,l)
);
},
{
closed = 1;
nodes = (
(274,728,l),
(315,785,l),
(315,896,l),
(46,880,l),
(20,697,l)
);
}
);
width = 718;
}
);
unicode = 89;
},
{
glyphname = Z;
lastChange = "2024-05-01 08:13:59 +0000";
layers = (
{
anchors = (
{
name = bottom;
pos = (446,0);
},
{
name = center;
pos = (446,425);
},
{
name = top;
pos = (437,892);
}
);
layerId = m01;
shapes = (
{
closed = 1;
nodes = (
(294,140,l),
(440,200,l),
(798,674,l),
(739,861,l),
(547,714,l),
(575,676,l),
(95,147,l),
(120,39,l),
(298,12,l)
);
},
{
closed = 1;
nodes = (
(694,-31,l),
(732,55,l),
(214,131,l),
(120,69,l),
(95,-60,l)
);
},
{
closed = 1;
nodes = (
(774,5,l),
(798,247,l),
(734,258,l),
(614,280,l),
(532,169,l),
(565,-12,l)
);
},
{
closed = 1;
nodes = (
(318,658,l),
(340,732,l),
(379,809,l),
(634,815,l),
(774,869,l),
(252,886,l),
(220,806,l),
(379,809,l),
(399,850,l),
(110,812,l),
(97,668,l),
(112,590,l)
);
},
{
closed = 1;
nodes = (
(791,820,l),
(774,869,l),
(399,850,l),
(252,763,l),
(798,674,l)
);
}
);
width = 832;
}
);
unicode = 90;
},
{
glyphname = a;
kernLeft = a;
lastChange = "2024-05-01 08:13:08 +0000";
layers = (
{
anchors = (
{
name = bottom;
pos = (327,0);
},
{
name = ogonek;
pos = (597,10);
},
{
name = top;
pos = (346,682);
}
);
layerId = m01;
shapes = (
{
closed = 1;
nodes = (
(329,12,l),
(444,75,l),
(453,211,l),
(346,181,l),
(259,158,l),
(195,228,l),
(210,273,l),
(373,253,l),
(428,247,l),
(452,336,l),
(353,411,l),
(218,347,l),
(61,256,l),
(51,140,l),
(104,-41,l)
);
},
{
closed = 1;
nodes = (
(243,413,l),
(307,445,l),
(290,479,l),
(284,555,l),
(284,664,l),
(95,645,l),
(42,594,l),
(96,399,l),
(155,365,l)
);
},
{
closed = 1;
nodes = (
(661,27,l),
(664,137,l),
(592,182,l),
(601,594,l),
(421,608,l),
(412,521,l),
(415,131,l),
(385,57,l),
(415,0,l)
);
},
{
closed = 1;
nodes = (
(581,567,l),
(560,641,l),
(460,660,l),
(164,630,l),
(135,538,l),
(301,506,l),
(480,481,l)
);
}
);
width = 664;
}
);
unicode = 97;
},
{
glyphname = ae;
kernLeft = a;
lastChange = "2024-05-01 08:02:31 +0000";
layers = (
{
anchors = (
{
name = top;
pos = (546,686);
}
);
layerId = m01;
shapes = (
{
closed = 1;
nodes = (
(329,12,l),
(444,75,l),
(453,211,l),
(346,181,l),
(259,158,l),
(195,228,l),
(210,273,l),
(373,253,l),
(428,247,l),
(452,336,l),
(353,411,l),
(218,347,l),
(61,256,l),
(51,140,l),
(104,-41,l)
);
},
{
closed = 1;
nodes = (
(243,413,l),
(307,445,l),
(290,479,l),
(284,555,l),
(284,664,l),
(95,645,l),
(42,594,l),
(96,399,l),
(155,365,l)
);
},
{
closed = 1;
nodes = (
(661,27,l),
(664,137,l),
(592,182,l),
(601,594,l),
(421,608,l),
(412,521,l),
(415,131,l),
(385,57,l),
(415,0,l)
);
},
{
closed = 1;
nodes = (
(581,567,l),
(560,641,l),
(460,660,l),
(164,630,l),
(135,538,l),
(301,506,l),
(480,481,l)
);
},
{
closed = 1;
nodes = (
(919,330,l),
(992,376,l),
(1011,531,l),
(926,662,l),
(733,659,l),
(638,632,l),
(572,501,l),
(619,413,l),
(823,531,l),
(855,422,l),
(845,396,l),
(680,379,l),
(625,385,l),
(601,296,l),
(747,240,l)
);
},
{
closed = 1;
nodes = (
(889,67,l),
(918,159,l),
(773,129,l),
(594,154,l),
(458,137,l),
(425,135,l),
(614,-25,l)
);
},
{
closed = 1;
nodes = (
(663,87,l),
(596,148,l),
(638,501,l),
(668,575,l),
(638,632,l),
(434,528,l),
(414,395,l),
(426,108,l),
(654,0,l)
);
},
{
closed = 1;
nodes = (
(978,36,l),
(1032,41,l),
(978,236,l),
(889,283,l),
(804,222,l),
(816,165,l),
(720,114,l),
(720,35,l),
(743,-7,l)
);
},
{
closed = 1;
nodes = (
(747,567,l),
(733,659,l),
(495,611,l),
(479,509,l)
);
}
);
width = 1043;
}
);
metricLeft = a;
metricRight = e;
unicode = 230;
},
{
glyphname = b;
lastChange = "2024-05-01 08:12:36 +0000";
layers = (
{
layerId = m01;
shapes = (
{
closed = 1;
nodes = (
(619,69,l),
(662,287,l),
(640,509,l),
(575,633,l),
(348,664,l),
(249,589,l),
(281,446,l),
(336,452,l),
(343,487,l),
(478,532,l),
(425,213,l),
(341,155,l),
(212,266,l),
(185,125,l),
(260,108,l),
(393,-5,l)
);
},
{
closed = 1;
nodes = (
(288,0,l),
(318,57,l),
(288,131,l),
(288,767,l),
(139,835,l),
(77,792,l),
(85,130,l),
(13,85,l),
(16,-25,l)
);
},
{
closed = 1;
nodes = (
(225,721,l),
(251,819,l),
(144,853,l),
(0,819,l),
(31,700,l),
(143,684,l)
);
}
);
width = 667;
}
);
unicode = 98;
},
{
glyphname = c;
kernLeft = a;
lastChange = "2024-05-01 07:58:44 +0000";
layers = (
{
anchors = (
{
name = bottom;
pos = (346,74);
},
{
name = top;
pos = (271,650);
}
);
layerId = m01;
shapes = (
{
closed = 1;
nodes = (
(226,15,l),
(312,96,l),
(248,356,l),
(254,572,l),
(196,586,l),
(134,565,l),
(56,442,l),
(37,293,l),
(88,0,l)
);
},
{
closed = 1;
nodes = (
(328,0,l),
(502,10,l),
(489,102,l),
(457,173,l),
(124,118,l),
(180,-33,l)
);
},
{
closed = 1;
nodes = (
(552,31,l),
(550,232,l),
(476,246,l),
(403,207,l),
(382,117,l),
(453,-11,l)
);
},
{
closed = 1;
nodes = (
(501,532,l),
(443,650,l),
(381,651,l),
(251,655,l),
(123,630,l),
(57,521,l),
(209,496,l)
);
},
{
closed = 1;
nodes = (
(543,407,l),
(543,502,l),
(524,642,l),
(393,611,l),
(337,557,l),
(384,445,l),
(443,407,l)
);
}
);
width = 552;
}
);
unicode = 99;
},
{
glyphname = d;
kernLeft = a;
lastChange = "2024-05-01 09:16:15 +0000";
layers = (
{
layerId = m01;
shapes = (
{
closed = 1;
nodes = (
(315,6,l),
(439,50,l),
(511,345,l),
(341,156,l),
(298,149,l),
(258,473,l),
(273,518,l),
(383,501,l),
(438,495,l),
(462,584,l),
(363,659,l),
(109,595,l),
(71,504,l),
(37,134,l),
(126,-25,l)
);
},
{
closed = 1;
nodes = (
(683,13,l),
(686,123,l),
(614,168,l),
(623,792,l),
(463,786,l),
(407,708,l),
(410,106,l),
(380,32,l),
(410,-25,l)
);
},
{
closed = 1;
nodes = (
(649,702,l),
(680,821,l),
(536,855,l),
(429,821,l),
(407,708,l),
(537,686,l)
);
}
);
width = 706;
}
);
metricLeft = c;
unicode = 100;
},
{
glyphname = e;
kernLeft = a;
lastChange = "2024-05-01 09:16:15 +0000";
layers = (
{
anchors = (
{
name = bottom;
pos = (327,0);
},
{
name = ogonek;
pos = (598,10);
},
{
name = top;
pos = (352,678);
}
);
layerId = m01;
shapes = (
{
closed = 1;
nodes = (
(542,330,l),
(615,376,l),
(634,531,l),
(549,662,l),
(356,659,l),
(261,632,l),
(195,501,l),
(242,413,l),
(446,531,l),
(478,422,l),
(468,396,l),
(303,379,l),
(248,385,l),
(224,296,l),
(370,240,l)
);
},
{
closed = 1;
nodes = (
(512,67,l),
(541,159,l),
(396,129,l),
(216,129,l),
(261,501,l),
(291,575,l),
(261,632,l),
(57,528,l),
(37,395,l),
(49,108,l),
(237,-25,l)
);
},
{
closed = 1;
nodes = (
(601,36,l),
(655,41,l),
(601,236,l),
(512,283,l),
(427,222,l),
(439,165,l),
(343,114,l),
(343,35,l),
(366,-7,l)
);
},
{
closed = 1;
nodes = (
(370,567,l),
(356,659,l),
(118,611,l),
(102,509,l)
);
}
);
width = 666;
}
);
metricLeft = c;
unicode = 101;
},
{
glyphname = f;
lastChange = "2024-04-30 18:30:33 +0000";
layers = (
{
layerId = m01;
shapes = (
{
closed = 1;
nodes = (
(359,13,l),
(362,123,l),
(290,168,l),
(296,650,l),
(172,770,l),
(133,823,l),
(77,745,l),
(86,106,l),
(56,32,l),
(86,-25,l)
);
},
{
closed = 1;
nodes = (
(345,484,l),
(430,538,l),
(410,649,l),
(10,582,l),
(10,444,l),
(47,406,l)
);
},
{
closed = 1;
nodes = (
(412,842,l),
(206,892,l),
(99,858,l),
(77,745,l),
(171,731,l),
(381,723,l)
);
}
);
width = 430;
}
);
unicode = 102;
},
{
glyphname = g;
kernLeft = a;
lastChange = "2024-05-01 07:58:55 +0000";
layers = (
{
anchors = (
{
name = bottom;
pos = (349,-300);
},
{
name = top;
pos = (385,690);
}
);
layerId = m01;
shapes = (
{
closed = 1;
nodes = (
(236,48,l),
(322,129,l),
(284,425,l),
(264,572,l),
(206,586,l),
(144,565,l),
(66,442,l),
(73,278,l),
(98,33,l)
);
},
{
closed = 1;
nodes = (
(489,-301,l),
(447,-105,l),
(234,-175,l),
(254,-79,l),
(190,-43,l),
(114,-45,l),
(37,-93,l),
(129,-194,l),
(268,-316,l)
);
},
{
closed = 1;
nodes = (
(338,33,l),
(559,51,l),
(546,143,l),
(514,214,l),
(134,151,l),
(178,-3,l)
);
},
{
closed = 1;
nodes = (
(618,-100,l),
(576,264,l),
(491,169,l),
(429,164,l),
(445,-65,l),
(424,-146,l),
(361,-164,l),
(392,-212,l),
(434,-275,l),
(591,-281,l)
);
},
{
closed = 1;
nodes = (
(605,418,l),
(583,630,l),
(521,661,l),
(415,644,l),
(411,398,l),
(399,278,l),
(399,102,l),
(559,51,l)
);
},
{
closed = 1;
nodes = (
(521,535,l),
(521,661,l),
(261,655,l),
(133,630,l),
(67,521,l),
(219,496,l)
);
},
{
closed = 1;
nodes = (
(645,456,l),
(690,541,l),
(691,659,l),
(499,634,l),
(502,581,l),
(563,443,l)
);
}
);
width = 698;
}
);
unicode = 103;
},
{
glyphname = h;
lastChange = "2024-04-30 15:47:21 +0000";
layers = (
{
layerId = m01;
shapes = (
{
closed = 1;
nodes = (
(359,24,l),
(362,134,l),
(290,179,l),
(296,650,l),
(299,757,l),
(133,823,l),
(77,745,l),
(86,117,l),
(56,43,l),
(86,-14,l)
);
},
{
closed = 1;
nodes = (
(553,0,l),
(627,54,l),
(658,81,l),
(621,178,l),
(638,635,l),
(483,660,l),
(381,651,l),
(291,516,l),
(290,474,l),
(383,530,l),
(412,517,l),
(428,145,l),
(412,-12,l)
);
},
{
closed = 1;
nodes = (
(299,757,l),
(299,854,l),
(160,891,l),
(53,857,l),
(31,744,l),
(125,730,l)
);
}
);
width = 658;
}
);
metricRight = n;
unicode = 104;
},
{
glyphname = i;
lastChange = "2024-05-01 08:05:51 +0000";
layers = (
{
anchors = (
{
name = bottom;
pos = (687,0);
},
{
name = right;
pos = (1058,413);
},
{
name = top;
pos = (687,650);
}
);
layerId = m01;
shapes = (
{
closed = 1;
nodes = (
(356,26,l),
(354,116,l),
(299,192,l),
(297,407,l),
(306,652,l),
(36,600,l),
(25,503,l),
(56,459,l),
(103,445,l),
(105,174,l),
(65,130,l),
(65,48,l),
(136,-15,l)
);
},
{
closed = 1;
nodes = (
(264,692,l),
(365,778,l),
(327,859,l),
(260,924,l),
(123,873,l),
(63,781,l),
(124,687,l)
);
}
);
width = 370;
}
);
unicode = 105;
},
{
glyphname = iacute;
lastChange = "2024-04-21 11:25:13 +0000";
layers = (
{
anchors = (
{
name = bottom;
pos = (195,7);
},
{
name = right;
pos = (331,413);
},
{
name = top;
pos = (161,650);
}
);
layerId = m01;
shapes = (
{
closed = 1;
nodes = (
(343,9,l),
(341,99,l),
(286,175,l),
(287,407,l),
(296,652,l),
(26,600,l),
(15,503,l),
(46,459,l),
(93,445,l),
(92,157,l),
(52,113,l),
(52,31,l),
(123,-32,l)
);
},
{
pos = (24,102);
ref = acute;
}
);
width = 379;
}
);
unicode = 237;
},
{
glyphname = icircumflex;
lastChange = "2024-04-21 11:25:13 +0000";
layers = (
{
layerId = m01;
shapes = (
{
closed = 1;
nodes = (
(343,9,l),
(341,99,l),
(286,175,l),
(287,407,l),
(296,652,l),
(26,600,l),
(15,503,l),
(46,459,l),
(93,445,l),
(92,157,l),
(52,113,l),
(52,31,l),
(123,-32,l)
);
},
{
pos = (-54,129);
ref = circumflex;
}
);
width = 404;
}
);
unicode = 238;
},
{
glyphname = idieresis;
lastChange = "2024-04-28 13:19:24 +0000";
layers = (
{
layerId = m01;
shapes = (
{
closed = 1;
nodes = (
(382,9,l),
(380,99,l),
(325,175,l),
(326,407,l),
(335,652,l),
(65,600,l),
(54,503,l),
(85,459,l),
(132,445,l),
(131,157,l),
(91,113,l),
(91,31,l),
(162,-32,l)
);
},
{
pos = (0,97);
ref = dieresis;
}
);
width = 464;
}
);
unicode = 239;
},
{
glyphname = igrave;
lastChange = "2024-04-21 11:25:13 +0000";
layers = (
{
layerId = m01;
shapes = (
{
closed = 1;
nodes = (
(343,9,l),
(341,99,l),
(286,175,l),
(287,407,l),
(296,652,l),
(26,600,l),
(15,503,l),
(46,459,l),
(93,445,l),
(92,157,l),
(52,113,l),
(52,31,l),
(123,-32,l)
);
},
{
pos = (0,100);
ref = grave;
}
);
width = 343;
}
);
unicode = 236;
},
{
glyphname = imacron;
lastChange = "2024-05-01 09:38:30 +0000";
layers = (
{
layerId = m01;
shapes = (
{
closed = 1;
nodes = (
(392,26,l),
(390,116,l),
(335,192,l),
(333,407,l),
(342,652,l),
(72,600,l),
(61,503,l),
(92,459,l),
(139,445,l),
(141,174,l),
(101,130,l),
(101,48,l),
(172,-15,l)
);
},
{
pos = (96,49);
ref = macron;
}
);
width = 455;
}
);
metricLeft = i;
metricRight = i;
unicode = 299;
},
{
glyphname = j;
lastChange = "2024-04-21 12:04:31 +0000";
layers = (
{
layerId = m01;
shapes = (
{
closed = 1;
nodes = (
(349,-17,l),
(337,536,l),
(367,610,l),
(337,667,l),
(64,629,l),
(61,519,l),
(133,474,l),
(132,221,l),
(182,30,l),
(273,-32,l)
);
},
{
closed = 1;
nodes = (
(348,-124,l),
(349,-17,l),
(276,3,l),
(130,-17,l),
(5,-78,l),
(32,-176,l),
(267,-185,l)
);
},
{
closed = 1;
nodes = (
(271,692,l),
(372,778,l),
(334,859,l),
(267,924,l),
(130,873,l),
(70,781,l),
(131,687,l)
);
}
);
width = 372;
}
);
unicode = 106;
},
{
glyphname = jacute;
lastChange = "2024-04-30 10:26:19 +0000";
layers = (
{
layerId = m01;
shapes = (
{
closed = 1;
nodes = (
(229,716,l),
(358,832,l),
(310,925,l),
(191,893,l),
(120,778,l),
(129,707,l)
);
},
{
closed = 1;
nodes = (
(349,-17,l),
(337,536,l),
(367,610,l),
(337,667,l),
(64,629,l),
(61,519,l),
(133,474,l),
(132,221,l),
(182,30,l),
(273,-32,l)
);
},
{
closed = 1;
nodes = (
(348,-124,l),
(349,-17,l),
(276,3,l),
(130,-17,l),
(5,-78,l),
(32,-176,l),
(267,-185,l)
);
}
);
width = 367;
}
);
metricLeft = j;
metricRight = j;
},
{
glyphname = k;
lastChange = "2024-04-21 15:53:49 +0000";
layers = (
{
layerId = m01;
shapes = (
{
closed = 1;
nodes = (
(359,28,l),
(362,138,l),
(290,183,l),
(296,485,l),
(298,563,l),
(301,670,l),
(135,736,l),
(79,658,l),
(86,121,l),
(56,47,l),
(86,-10,l)
);
},
{
closed = 1;
nodes = (
(597,66,l),
(625,175,l),
(499,309,l),
(469,326,l),
(352,367,l),
(272,362,l),
(203,290,l),
(368,243,l),
(438,13,l),
(539,-16,l)
);
},
{
closed = 1;
nodes = (
(656,11,l),
(720,75,l),
(656,140,l),
(513,100,l),
(484,148,l),
(476,46,l),
(539,-16,l)
);
},
{
closed = 1;
nodes = (
(301,670,l),
(301,767,l),
(162,804,l),
(55,770,l),
(33,657,l),
(127,643,l)
);
},
{
closed = 1;
nodes = (
(628,474,l),
(633,539,l),
(527,586,l),
(470,614,l),
(418,566,l),
(368,494,l),
(272,362,l),
(469,326,l)
);
},
{
closed = 1;
nodes = (
(633,539,l),
(621,630,l),
(552,666,l),
(441,665,l),
(377,601,l),
(441,536,l),
(502,456,l)
);
}
);
width = 720;
}
);
unicode = 107;
},
{
glyphname = l;
lastChange = "2024-04-30 15:58:24 +0000";
layers = (
{
layerId = m01;
shapes = (
{
closed = 1;
nodes = (
(355,9,l),
(358,119,l),
(286,164,l),
(296,650,l),
(299,757,l),
(133,823,l),
(77,745,l),
(82,102,l),
(52,28,l),
(82,-29,l)
);
},
{
closed = 1;
nodes = (
(299,757,l),
(299,854,l),
(160,891,l),
(53,857,l),
(31,744,l),
(125,730,l)
);
}
);
width = 378;
}
);
metricLeft = h;
unicode = 108;
},
{
glyphname = m;
kernLeft = a;
lastChange = "2024-05-01 07:59:16 +0000";
layers = (
{
layerId = m01;
shapes = (
{
closed = 1;
nodes = (
(381,29,l),
(379,119,l),
(324,195,l),
(323,407,l),
(332,652,l),
(26,600,l),
(15,503,l),
(46,459,l),
(93,445,l),
(94,177,l),
(54,133,l),
(54,51,l),
(125,-12,l)
);
},
{
closed = 1;
nodes = (
(648,74,l),
(679,101,l),
(642,198,l),
(657,635,l),
(502,660,l),
(400,651,l),
(310,516,l),
(309,474,l),
(402,530,l),
(431,517,l),
(449,165,l),
(433,8,l)
);
},
{
closed = 1;
nodes = (
(896,20,l),
(970,74,l),
(1001,101,l),
(964,198,l),
(979,635,l),
(824,660,l),
(722,651,l),
(632,516,l),
(631,474,l),
(724,530,l),
(753,517,l),
(771,165,l),
(755,8,l)
);
}
);
width = 1001;
}
);
unicode = 109;
},
{
glyphname = n;
kernLeft = a;
lastChange = "2024-05-01 07:59:18 +0000";
layers = (
{
anchors = (
{
name = bottom;
pos = (677,0);
},
{
name = right;
pos = (1048,413);
},
{
name = top;
pos = (379,667);
}
);
layerId = m01;
shapes = (
{
closed = 1;
nodes = (
(379,26,l),
(377,116,l),
(322,192,l),
(323,407,l),
(332,652,l),
(26,600,l),
(15,503,l),
(46,459,l),
(93,445,l),
(92,174,l),
(52,130,l),
(52,48,l),
(123,-15,l)
);
},
{
closed = 1;
nodes = (
(597,29,l),
(646,71,l),
(677,98,l),
(640,195,l),
(657,635,l),
(502,660,l),
(400,651,l),
(310,516,l),
(309,474,l),
(402,530,l),
(431,517,l),
(447,162,l),
(431,5,l)
);
}
);
width = 677;
}
);
metricLeft = m;
metricRight = m;
unicode = 110;
},
{
glyphname = o;
kernLeft = a;
lastChange = "2024-05-01 09:16:15 +0000";
layers = (
{
anchors = (
{
name = bottom;
pos = (274,0);
},
{
name = center;
pos = (274,325);
},
{
name = ogonek;
pos = (516,10);
},
{
name = top;
pos = (317,686);
},
{
name = topright;
pos = (556,650);
}
);
layerId = m01;
shapes = (
{
closed = 1;
nodes = (
(576,418,l),
(554,630,l),
(492,661,l),
(386,644,l),
(382,398,l),
(337,207,l),
(370,69,l),
(530,18,l)
);
},
{
closed = 1;
nodes = (
(318,-11,l),
(530,18,l),
(517,110,l),
(486,161,l),
(106,98,l),
(161,-33,l)
);
},
{
closed = 1;
nodes = (
(207,15,l),
(293,96,l),
(255,308,l),
(235,572,l),
(177,586,l),
(115,565,l),
(37,442,l),
(44,245,l),
(69,0,l)
);
},
{
closed = 1;
nodes = (
(492,535,l),
(492,661,l),
(232,655,l),
(104,630,l),
(38,521,l),
(190,496,l)
);
}
);
width = 581;
}
);
metricLeft = c;
metricRight = b;
unicode = 111;
},
{
glyphname = oslash;
kernLeft = a;
lastChange = "2024-05-01 08:06:52 +0000";
layers = (
{
layerId = m01;
shapes = (
{
closed = 1;
nodes = (
(615,418,l),
(593,630,l),
(531,661,l),
(425,644,l),
(376,207,l),
(409,69,l),
(569,18,l)
);
},
{
closed = 1;
nodes = (
(348,0,l),
(569,18,l),
(556,110,l),
(524,181,l),
(144,118,l),
(200,-33,l)
);
},
{
closed = 1;
nodes = (
(246,15,l),
(332,96,l),
(294,308,l),
(274,572,l),
(216,586,l),
(154,565,l),
(76,442,l),
(83,245,l),
(108,0,l)
);
},
{
closed = 1;
nodes = (
(531,535,l),
(531,661,l),
(271,655,l),
(143,630,l),
(77,521,l),
(229,496,l)
);
},
{
closed = 1;
nodes = (
(95,-26,l),
(108,-67,l),
(170,-84,l),
(580,682,l),
(555,719,l),
(476,701,l)
);
}
);
width = 685;
}
);
unicode = 248;
},
{
glyphname = oe;
kernLeft = a;
lastChange = "2024-05-01 09:16:15 +0000";
layers = (
{
anchors = (
{
name = bottom;
pos = (685,0);
},
{
name = center;
pos = (274,325);
},
{
name = ogonek;
pos = (956,10);
},
{
name = top;
pos = (710,678);
},
{
name = topright;
pos = (556,650);
}
);
layerId = m01;
shapes = (
{
closed = 1;
nodes = (
(576,418,l),
(554,630,l),
(492,661,l),
(386,644,l),
(382,398,l),
(337,207,l),
(370,69,l),
(562,21,l)
);
},
{
closed = 1;
nodes = (
(309,0,l),
(562,21,l),
(517,110,l),
(485,181,l),
(105,118,l),
(161,-33,l)
);
},
{
closed = 1;
nodes = (
(207,15,l),
(293,96,l),
(255,308,l),
(235,572,l),
(177,586,l),
(115,565,l),
(37,442,l),
(44,245,l),
(69,0,l)
);
},
{
closed = 1;
nodes = (
(492,535,l),
(492,661,l),
(232,655,l),
(104,630,l),
(38,521,l),
(190,496,l)
);
},
{
closed = 1;
nodes = (
(900,330,l),
(973,376,l),
(992,531,l),
(907,662,l),
(714,659,l),
(619,632,l),
(553,501,l),
(600,413,l),
(804,531,l),
(836,422,l),
(826,396,l),
(661,379,l),
(563,443,l),
(539,354,l),
(728,240,l)
);
},
{
closed = 1;
nodes = (
(870,67,l),
(899,159,l),
(754,129,l),
(575,154,l),
(439,137,l),
(406,135,l),
(607,-28,l)
);
},
{
closed = 1;
nodes = (
(644,87,l),
(570,144,l),
(612,497,l),
(649,575,l),
(619,632,l),
(415,528,l),
(395,395,l),
(407,108,l),
(635,0,l)
);
},
{
closed = 1;
nodes = (
(959,36,l),
(1013,41,l),
(959,236,l),
(870,283,l),
(785,222,l),
(797,165,l),
(701,114,l),
(701,35,l),
(724,-7,l)
);
},
{
closed = 1;
nodes = (
(728,567,l),
(714,659,l),
(476,611,l),
(460,509,l)
);
}
);
width = 1024;
}
);
metricLeft = o;
metricRight = e;
unicode = 339;
},
{
glyphname = p;
kernLeft = a;
lastChange = "2024-05-01 07:59:37 +0000";
layers = (
{
layerId = m01;
shapes = (
{
closed = 1;
nodes = (
(588,38,l),
(653,162,l),
(675,373,l),
(632,591,l),
(406,665,l),
(263,612,l),
(177,509,l),
(204,368,l),
(461,479,l),
(514,419,l),
(454,122,l),
(331,119,l),
(262,218,l),
(177,218,l),
(252,162,l),
(340,-19,l)
);
},
{
closed = 1;
nodes = (
(293,-175,l),
(252,-95,l),
(170,-58,l),
(58,-74,l),
(27,-193,l),
(169,-244,l)
);
},
{
closed = 1;
nodes = (
(293,-175,l),
(276,513,l),
(331,586,l),
(301,643,l),
(29,668,l),
(26,558,l),
(98,513,l),
(107,-201,l),
(169,-244,l)
);
}
);
width = 680;
}
);
metricRight = b;
unicode = 112;
},
{
glyphname = q;
kernLeft = a;
lastChange = "2024-05-01 07:59:40 +0000";
layers = (
{
layerId = m01;
shapes = (
{
closed = 1;
nodes = (
(433,144,l),
(411,218,l),
(351,113,l),
(181,144,l),
(237,421,l),
(358,479,l),
(487,368,l),
(514,509,l),
(428,612,l),
(306,639,l),
(80,565,l),
(37,347,l),
(59,136,l),
(124,12,l),
(330,-23,l)
);
},
{
closed = 1;
nodes = (
(681,-239,l),
(650,-120,l),
(538,-104,l),
(456,-141,l),
(430,-239,l),
(537,-273,l)
);
},
{
closed = 1;
nodes = (
(601,-247,l),
(593,513,l),
(665,558,l),
(662,668,l),
(390,643,l),
(360,586,l),
(390,512,l),
(390,-222,l),
(539,-290,l)
);
}
);
width = 681;
}
);
metricLeft = c;
unicode = 113;
},
{
glyphname = r;
kernLeft = a;
lastChange = "2024-05-01 08:56:36 +0000";
layers = (
{
anchors = (
{
name = bottom;
pos = (292,0);
},
{
name = top;
pos = (292,668);
}
);
layerId = m01;
shapes = (
{
closed = 1;
nodes = (
(348,33,l),
(351,143,l),
(279,188,l),
(285,425,l),
(288,532,l),
(122,598,l),
(66,520,l),
(75,126,l),
(45,52,l),
(75,-5,l)
);
},
{
closed = 1;
nodes = (
(288,532,l),
(288,629,l),
(149,666,l),
(42,632,l),
(20,519,l),
(114,505,l)
);
},
{
closed = 1;
nodes = (
(580,538,l),
(584,637,l),
(429,662,l),
(327,653,l),
(237,518,l),
(236,476,l),
(329,532,l),
(358,519,l),
(360,463,l),
(511,394,l)
);
},
{
closed = 1;
nodes = (
(348,33,l),
(351,143,l),
(279,188,l),
(285,425,l),
(288,532,l),
(122,598,l),
(66,520,l),
(75,126,l),
(45,52,l),
(75,-5,l)
);
}
);
width = 584;
}
);
unicode = 114;
},
{
glyphname = s;
kernLeft = a;
lastChange = "2024-05-01 09:04:48 +0000";
layers = (
{
anchors = (
{
name = bottom;
pos = (343,44);
},
{
name = top;
pos = (306,673);
}
);
layerId = m01;
shapes = (
{
closed = 1;
nodes = (
(188,263,l),
(263,317,l),
(244,538,l),
(248,627,l),
(46,570,l),
(62,263,l)
);
},
{
closed = 1;
nodes = (
(542,67,l),
(223,212,l),
(29,137,l),
(28,-6,l),
(314,-23,l)
);
},
{
closed = 1;
nodes = (
(566,357,l),
(463,438,l),
(65,343,l),
(68,336,l),
(421,292,l)
);
},
{
closed = 1;
nodes = (
(542,67,l),
(566,357,l),
(409,410,l),
(353,-2,l)
);
},
{
closed = 1;
nodes = (
(539,508,l),
(598,570,l),
(578,681,l),
(355,673,l),
(112,621,l),
(174,482,l),
(372,544,l),
(410,462,l)
);
}
);
width = 598;
}
);
unicode = 115;
},
{
glyphname = germandbls;
lastChange = "2024-04-21 11:25:13 +0000";
layers = (
{
layerId = m01;
shapes = (
{
closed = 1;
nodes = (
(399,-14,l),
(393,80,l),
(330,141,l),
(340,580,l),
(216,700,l),
(177,753,l),
(121,675,l),
(126,79,l),
(96,5,l),
(126,-52,l)
);
},
{
closed = 1;
nodes = (
(329,494,l),
(319,579,l),
(234,633,l),
(77,589,l),
(40,551,l),
(109,427,l)
);
},
{
closed = 1;
nodes = (
(726,4,l),
(786,144,l),
(767,299,l),
(610,390,l),
(475,454,l),
(376,379,l),
(400,290,l),
(455,296,l),
(618,316,l),
(633,271,l),
(578,162,l),
(482,224,l),
(400,247,l),
(375,154,l),
(501,-51,l)
);
},
{
closed = 1;
nodes = (
(579,451,l),
(654,507,l),
(635,662,l),
(456,772,l),
(244,742,l),
(274,672,l),
(425,653,l),
(456,650,l),
(501,634,l),
(446,525,l),
(413,467,l),
(376,379,l)
);
},
{
closed = 1;
nodes = (
(456,772,l),
(250,822,l),
(143,788,l),
(121,675,l),
(215,661,l),
(425,653,l)
);
}
);
width = 786;
}
);
unicode = 223;
},
{
glyphname = t;
lastChange = "2024-04-23 13:02:50 +0000";
layers = (
{
layerId = m01;
shapes = (
{
closed = 1;
nodes = (
(194,123,l),
(326,267,l),
(333,723,l),
(281,792,l),
(152,831,l),
(98,785,l),
(86,127,l),
(142,49,l)
);
},
{
closed = 1;
nodes = (
(391,53,l),
(358,171,l),
(249,200,l),
(86,127,l),
(108,14,l),
(215,-20,l)
);
},
{
closed = 1;
nodes = (
(410,58,l),
(434,195,l),
(358,213,l),
(273,144,l),
(305,116,l),
(357,50,l)
);
},
{
closed = 1;
nodes = (
(457,504,l),
(477,615,l),
(392,669,l),
(57,589,l),
(20,551,l),
(89,427,l)
);
}
);
width = 486;
}
);
unicode = 116;
},
{
glyphname = u;
kernLeft = a;
lastChange = "2024-05-01 07:59:54 +0000";
layers = (
{
anchors = (
{
name = bottom;
pos = (334,0);
},
{
name = ogonek;
pos = (601,10);
},
{
name = top;
pos = (347,679);
},
{
name = topright;
pos = (648,650);
}
);
layerId = m01;
shapes = (
{
closed = 1;
nodes = (
(666,52,l),
(677,149,l),
(646,193,l),
(599,207,l),
(600,471,l),
(640,515,l),
(640,597,l),
(569,660,l),
(313,619,l),
(315,529,l),
(370,453,l),
(369,245,l),
(360,0,l)
);
},
{
closed = 1;
nodes = (
(292,1,l),
(382,136,l),
(383,178,l),
(290,122,l),
(261,135,l),
(245,483,l),
(261,640,l),
(95,616,l),
(46,574,l),
(15,547,l),
(52,450,l),
(35,17,l),
(190,-8,l)
);
}
);
width = 687;
}
);
unicode = 117;
},
{
glyphname = v;
kernLeft = a;
lastChange = "2024-05-01 08:00:01 +0000";
layers = (
{
layerId = m01;
shapes = (
{
closed = 1;
nodes = (
(427,-21,l),
(223,609,l),
(107,627,l),
(0,543,l),
(81,429,l),
(157,32,l),
(303,-21,l)
);
},
{
closed = 1;
nodes = (
(313,494,l),
(321,614,l),
(203,650,l),
(107,627,l),
(81,429,l)
);
},
{
closed = 1;
nodes = (
(509,45,l),
(618,483,l),
(653,609,l),
(559,640,l),
(443,622,l),
(378,362,l),
(365,76,l),
(368,10,l)
);
}
);
width = 653;
}
);
unicode = 118;
},
{
glyphname = w;
kernLeft = a;
lastChange = "2024-05-01 08:00:03 +0000";
layers = (
{
anchors = (
{
name = bottom;
pos = (539,0);
},
{
name = top;
pos = (539,676);
}
);
layerId = m01;
shapes = (
{
closed = 1;
nodes = (
(416,-12,l),
(447,39,l),
(401,59,l),
(223,609,l),
(107,627,l),
(0,543,l),
(81,429,l),
(157,32,l),
(303,-21,l)
);
},
{
closed = 1;
nodes = (
(313,494,l),
(321,614,l),
(203,650,l),
(107,627,l),
(81,429,l)
);
},
{
closed = 1;
nodes = (
(509,45,l),
(618,483,l),
(653,609,l),
(559,640,l),
(443,622,l),
(378,362,l),
(365,76,l),
(368,10,l)
);
},
{
closed = 1;
nodes = (
(852,-12,l),
(868,29,l),
(832,41,l),
(648,609,l),
(532,627,l),
(638,180,l),
(572,129,l),
(582,32,l),
(728,-21,l)
);
},
{
closed = 1;
nodes = (
(934,45,l),
(1043,483,l),
(1078,609,l),
(984,640,l),
(868,622,l),
(803,362,l),
(790,76,l),
(793,10,l)
);
}
);
width = 1078;
}
);
metricLeft = v;
metricRight = v;
unicode = 119;
},
{
glyphname = x;
kernLeft = a;
lastChange = "2024-05-01 08:51:39 +0000";
layers = (
{
layerId = m01;
shapes = (
{
closed = 1;
nodes = (
(565,7,l),
(592,101,l),
(497,245,l),
(317,474,l),
(282,623,l),
(195,670,l),
(68,562,l),
(53,486,l),
(404,27,l),
(485,-17,l)
);
},
{
closed = 1;
nodes = (
(225,56,l),
(245,110,l),
(284,292,l),
(117,265,l),
(42,173,l),
(53,49,l),
(74,7,l),
(134,-28,l)
);
},
{
closed = 1;
nodes = (
(336,483,l),
(283,622,l),
(195,670,l),
(102,620,l),
(117,553,l),
(292,352,l)
);
},
{
closed = 1;
nodes = (
(553,361,l),
(610,433,l),
(646,613,l),
(625,655,l),
(565,690,l),
(384,575,l),
(399,338,l)
);
}
);
width = 646;
}
);
metricLeft = a;
metricRight = a;
unicode = 120;
},
{
glyphname = y;
kernLeft = a;
lastChange = "2024-05-01 08:00:12 +0000";
layers = (
{
anchors = (
{
name = bottom;
pos = (327,0);
},
{
name = top;
pos = (365,650);
}
);
layerId = m01;
shapes = (
{
closed = 1;
nodes = (
(427,-21,l),
(223,609,l),
(107,627,l),
(0,543,l),
(81,429,l),
(157,32,l),
(303,-21,l)
);
},
{
closed = 1;
nodes = (
(305,-281,l),
(458,-128,l),
(509,45,l),
(387,116,l),
(310,62,l),
(305,-178,l),
(153,-95,l),
(56,-193,l),
(122,-304,l)
);
},
{
closed = 1;
nodes = (
(313,494,l),
(321,614,l),
(203,650,l),
(107,627,l),
(81,429,l)
);
},
{
closed = 1;
nodes = (
(509,45,l),
(618,483,l),
(653,609,l),
(559,640,l),
(443,622,l),
(378,362,l),
(365,76,l),
(368,10,l)
);
}
);
width = 653;
}
);
metricRight = v;
unicode = 121;
},
{
glyphname = z;
kernLeft = a;
lastChange = "2024-05-01 08:49:55 +0000";
layers = (
{
anchors = (
{
name = bottom;
pos = (318,0);
},
{
name = center;
pos = (318,325);
},
{
name = top;
pos = (350,661);
}
);
layerId = m01;
shapes = (
{
closed = 1;
nodes = (
(344,206,l),
(614,420,l),
(634,489,l),
(521,626,l),
(419,486,l),
(42,162,l),
(71,39,l),
(249,12,l)
);
},
{
closed = 1;
nodes = (
(581,3,l),
(619,89,l),
(250,135,l),
(71,103,l),
(46,-26,l)
);
},
{
closed = 1;
nodes = (
(661,39,l),
(685,281,l),
(621,292,l),
(542,310,l),
(460,199,l),
(452,22,l)
);
},
{
closed = 1;
nodes = (
(269,469,l),
(291,543,l),
(350,661,l),
(61,623,l),
(48,479,l),
(63,401,l)
);
},
{
closed = 1;
nodes = (
(627,600,l),
(610,649,l),
(350,626,l),
(174,525,l),
(634,489,l)
);
},
{
closed = 1;
nodes = (
(521,591,l),
(610,649,l),
(203,662,l),
(171,582,l)
);
}
);
width = 685;
}
);
metricLeft = a;
metricRight = a;
unicode = 122;
},
{
glyphname = zero;
lastChange = "2024-05-01 09:12:28 +0000";
layers = (
{
layerId = m01;
shapes = (
{
closed = 1;
nodes = (
(215,670,l),
(518,782,l),
(370,890,l),
(77,779,l),
(20,212,l),
(24,85,l),
(215,63,l)
);
},
{
closed = 1;
nodes = (
(518,11,l),
(649,279,l),
(676,698,l),
(486,675,l),
(424,163,l),
(56,112,l),
(110,-19,l)
);
},
{
closed = 1;
nodes = (
(698,710,l),
(643,811,l),
(194,772,l),
(199,623,l),
(638,665,l),
(686,676,l)
);
}
);
width = 699;
}
);
unicode = 48;
},
{
glyphname = one;
lastChange = "2024-05-01 09:15:25 +0000";
layers = (
{
layerId = m01;
shapes = (
{
closed = 1;
nodes = (
(350,0,l),
(384,84,l),
(427,634,l),
(433,795,l),
(222,714,l),
(202,10,l)
);
},
{
closed = 1;
nodes = (
(433,0,l),
(456,91,l),
(441,181,l),
(156,140,l),
(118,32,l),
(152,-28,l)
);
},
{
closed = 1;
nodes = (
(427,634,l),
(437,826,l),
(317,863,l),
(113,703,l),
(76,606,l),
(85,555,l)
);
}
);
width = 476;
}
);
unicode = 49;
},
{
glyphname = two;
lastChange = "2024-04-30 10:29:22 +0000";
layers = (
{
layerId = m01;
shapes = (
{
closed = 1;
nodes = (
(277,34,l),
(330,285,l),
(669,424,l),
(681,642,l),
(581,811,l),
(452,467,l),
(98,311,l),
(76,165,l),
(74,-37,l)
);
},
{
closed = 1;
nodes = (
(608,15,l),
(626,53,l),
(183,199,l),
(99,92,l),
(74,-37,l)
);
},
{
closed = 1;
nodes = (
(258,484,l),
(280,559,l),
(380,850,l),
(88,739,l),
(78,668,l),
(52,456,l)
);
},
{
closed = 1;
nodes = (
(671,59,l),
(696,300,l),
(632,311,l),
(566,311,l),
(429,222,l),
(462,41,l)
);
},
{
closed = 1;
nodes = (
(529,770,l),
(606,859,l),
(183,832,l),
(167,754,l)
);
},
{
closed = 1;
nodes = (
(674,788,l),
(606,859,l),
(380,850,l),
(205,713,l),
(681,642,l)
);
}
);
width = 700;
}
);
unicode = 50;
},
{
glyphname = three;
lastChange = "2024-05-01 09:14:51 +0000";
layers = (
{
layerId = m01;
shapes = (
{
closed = 1;
nodes = (
(588,481,l),
(701,700,l),
(635,866,l),
(308,826,l),
(257,803,l),
(425,650,l),
(407,382,l)
);
},
{
closed = 1;
nodes = (
(202,94,l),
(295,205,l),
(233,296,l),
(180,325,l),
(70,318,l),
(60,65,l)
);
},
{
closed = 1;
nodes = (
(425,18,l),
(596,51,l),
(180,154,l),
(60,65,l),
(84,-15,l)
);
},
{
closed = 1;
nodes = (
(675,320,l),
(588,481,l),
(407,382,l),
(395,76,l),
(596,51,l)
);
},
{
closed = 1;
nodes = (
(426,571,l),
(292,492,l),
(273,419,l),
(426,367,l)
);
},
{
closed = 1;
nodes = (
(258,602,l),
(285,756,l),
(460,672,l),
(591,851,l),
(195,851,l),
(20,658,l),
(40,574,l)
);
}
);
width = 701;
}
);
unicode = 51;
},
{
glyphname = four;
lastChange = "2024-04-30 09:57:02 +0000";
layers = (
{
layerId = m01;
shapes = (
{
closed = 1;
nodes = (
(617,228,l),
(659,339,l),
(643,419,l),
(153,259,l),
(187,320,l),
(563,794,l),
(487,855,l),
(366,828,l),
(3,368,l),
(60,132,l)
);
},
{
closed = 1;
nodes = (
(487,855,l),
(404,712,l),
(386,180,l),
(331,21,l),
(404,-43,l),
(580,8,l),
(566,600,l),
(606,819,l)
);
}
);
width = 668;
}
);
unicode = 52;
},
{
glyphname = five;
lastChange = "2024-04-30 10:02:01 +0000";
layers = (
{
layerId = m01;
shapes = (
{
closed = 1;
nodes = (
(436,322,l),
(530,258,l),
(586,357,l),
(659,484,l),
(517,556,l),
(107,378,l),
(63,292,l),
(96,243,l)
);
},
{
closed = 1;
nodes = (
(483,-33,l),
(607,0,l),
(544,186,l),
(278,67,l),
(243,216,l),
(125,194,l),
(67,1,l),
(213,-48,l)
);
},
{
closed = 1;
nodes = (
(701,320,l),
(659,484,l),
(501,395,l),
(517,26,l),
(607,0,l)
);
},
{
closed = 1;
nodes = (
(248,393,l),
(255,582,l),
(483,837,l),
(399,889,l),
(107,778,l),
(107,378,l)
);
},
{
closed = 1;
nodes = (
(498,678,l),
(496,641,l),
(700,670,l),
(727,728,l),
(661,894,l),
(381,854,l),
(236,594,l)
);
}
);
width = 758;
}
);
unicode = 53;
},
{
glyphname = six;
lastChange = "2024-04-30 10:00:17 +0000";
layers = (
{
layerId = m01;
shapes = (
{
closed = 1;
nodes = (
(308,-3,l),
(293,711,l),
(480,813,l),
(399,889,l),
(107,778,l),
(123,170,l),
(93,3,l)
);
},
{
closed = 1;
nodes = (
(498,18,l),
(622,51,l),
(523,108,l),
(188,157,l),
(128,47,l),
(152,-33,l)
);
},
{
closed = 1;
nodes = (
(454,413,l),
(491,452,l),
(498,393,l),
(701,320,l),
(648,492,l),
(559,571,l),
(90,434,l),
(39,304,l),
(72,256,l)
);
},
{
closed = 1;
nodes = (
(701,320,l),
(614,481,l),
(491,452,l),
(468,76,l),
(622,51,l)
);
},
{
closed = 1;
nodes = (
(517,632,l),
(701,671,l),
(727,728,l),
(661,894,l),
(381,854,l),
(293,711,l),
(498,678,l),
(496,648,l)
);
}
);
width = 728;
}
);
unicode = 54;
},
{
glyphname = seven;
lastChange = "2024-05-01 09:14:05 +0000";
layers = (
{
layerId = m01;
shapes = (
{
closed = 1;
nodes = (
(376,-61,l),
(480,31,l),
(695,718,l),
(618,879,l),
(336,882,l),
(297,721,l),
(516,764,l),
(240,-17,l)
);
},
{
closed = 1;
nodes = (
(288,587,l),
(314,616,l),
(411,857,l),
(385,901,l),
(70,841,l),
(123,601,l)
);
},
{
closed = 1;
nodes = (
(645,494,l),
(275,452,l),
(212,317,l),
(238,274,l),
(599,278,l),
(645,339,l),
(668,452,l)
);
}
);
width = 704;
}
);
unicode = 55;
},
{
glyphname = eight;
lastChange = "2024-04-30 09:59:12 +0000";
layers = (
{
layerId = m01;
shapes = (
{
closed = 1;
nodes = (
(538,0,l),
(594,175,l),
(228,112,l),
(294,333,l),
(210,413,l),
(116,357,l),
(32,136,l),
(130,-20,l)
);
},
{
closed = 1;
nodes = (
(538,463,l),
(518,574,l),
(209,478,l),
(126,300,l),
(406,336,l)
);
},
{
closed = 1;
nodes = (
(232,469,l),
(238,571,l),
(252,785,l),
(136,812,l),
(57,544,l),
(188,413,l)
);
},
{
closed = 1;
nodes = (
(701,320,l),
(614,481,l),
(480,382,l),
(462,92,l),
(616,67,l)
);
},
{
closed = 1;
nodes = (
(614,481,l),
(727,728,l),
(661,894,l),
(224,854,l),
(166,604,l),
(498,678,l),
(480,382,l)
);
}
);
width = 728;
}
);
unicode = 56;
},
{
glyphname = nine;
lastChange = "2024-04-30 13:56:59 +0000";
layers = (
{
layerId = m01;
shapes = (
{
closed = 1;
nodes = (
(423,0,l),
(405,110,l),
(235,140,l),
(182,207,l),
(47,171,l),
(22,115,l),
(87,-52,l)
);
},
{
closed = 1;
nodes = (
(237,428,l),
(234,740,l),
(54,793,l),
(22,491,l),
(109,330,l)
);
},
{
closed = 1;
nodes = (
(318,306,l),
(444,402,l),
(495,532,l),
(462,580,l),
(310,458,l),
(92,437,l),
(54,353,l),
(158,281,l)
);
},
{
closed = 1;
nodes = (
(552,791,l),
(455,861,l),
(178,826,l),
(54,793,l),
(192,736,l),
(490,653,l)
);
},
{
closed = 1;
nodes = (
(549,840,l),
(418,823,l),
(410,297,l),
(405,110,l),
(206,21,l),
(423,0,l),
(577,115,l),
(591,205,l),
(615,799,l)
);
}
);
width = 698;
}
);
unicode = 57;
},
{
glyphname = period;
kernLeft = a;
lastChange = "2024-05-01 08:08:49 +0000";
layers = (
{
layerId = m01;
shapes = (
{
closed = 1;
nodes = (
(242,-17,l),
(232,67,l),
(144,180,l),
(16,132,l),
(21,14,l),
(102,-49,l)
);
}
);
width = 328;
}
);
unicode = 46;
},
{
glyphname = comma;
kernLeft = a;
lastChange = "2024-05-01 09:12:21 +0000";
layers = (
{
layerId = m01;
shapes = (
{
closed = 1;
nodes = (
(206,-155,l),
(251,18,l),
(90,55,l),
(115,-63,l),
(76,-76,l),
(33,-201,l),
(133,-257,l)
);
},
{
closed = 1;
nodes = (
(251,18,l),
(257,137,l),
(122,187,l),
(30,71,l),
(20,-15,l),
(166,-48,l)
);
}
);
width = 307;
}
);
unicode = 44;
},
{
glyphname = colon;
kernLeft = a;
lastChange = "2024-05-01 08:08:59 +0000";
layers = (
{
layerId = m01;
shapes = (
{
closed = 1;
nodes = (
(462,370,l),
(457,487,l),
(376,551,l),
(236,519,l),
(246,435,l),
(333,322,l)
);
},
{
closed = 1;
nodes = (
(462,-17,l),
(452,67,l),
(364,180,l),
(236,132,l),
(241,14,l),
(322,-49,l)
);
}
);
width = 668;
}
);
unicode = 58;
},
{
glyphname = semicolon;
kernLeft = a;
lastChange = "2024-05-01 08:53:49 +0000";
layers = (
{
layerId = m01;
shapes = (
{
closed = 1;
nodes = (
(202,-137,l),
(246,22,l),
(90,56,l),
(115,-53,l),
(77,-64,l),
(36,-179,l),
(133,-231,l)
);
},
{
closed = 1;
nodes = (
(246,22,l),
(251,132,l),
(121,178,l),
(33,71,l),
(23,-7,l),
(164,-38,l)
);
},
{
closed = 1;
nodes = (
(256,340,l),
(246,429,l),
(155,548,l),
(20,497,l),
(26,374,l),
(110,306,l)
);
}
);
width = 456;
}
);
unicode = 59;
},
{
glyphname = exclam;
lastChange = "2024-04-24 13:16:46 +0000";
layers = (
{
layerId = m01;
shapes = (
{
closed = 1;
nodes = (
(273,276,l),
(328,447,l),
(341,803,l),
(269,857,l),
(123,855,l),
(96,721,l),
(160,272,l),
(224,248,l)
);
},
{
closed = 1;
nodes = (
(353,-16,l),
(342,67,l),
(255,180,l),
(126,132,l),
(131,15,l),
(212,-49,l)
);
}
);
width = 398;
}
);
unicode = 33;
},
{
glyphname = exclamdown;
lastChange = "2024-04-28 14:33:31 +0000";
layers = (
{
layerId = m01;
shapes = (
{
closed = 1;
nodes = (
(160,319,l),
(96,-130,l),
(123,-264,l),
(269,-266,l),
(341,-212,l),
(328,144,l),
(273,315,l),
(224,343,l)
);
},
{
closed = 1;
nodes = (
(131,576,l),
(126,459,l),
(255,411,l),
(342,524,l),
(353,607,l),
(212,640,l)
);
}
);
width = 398;
}
);
unicode = 161;
},
{
glyphname = question;
lastChange = "2024-05-01 09:01:39 +0000";
layers = (
{
layerId = m01;
shapes = (
{
closed = 1;
nodes = (
(398,331,l),
(392,447,l),
(586,553,l),
(549,889,l),
(230,820,l),
(121,767,l),
(359,783,l),
(379,549,l),
(302,556,l),
(234,392,l),
(253,291,l),
(363,283,l)
);
},
{
closed = 1;
nodes = (
(462,-17,l),
(452,67,l),
(364,180,l),
(236,132,l),
(241,14,l),
(322,-49,l)
);
},
{
closed = 1;
nodes = (
(248,561,l),
(292,724,l),
(412,759,l),
(395,908,l),
(113,875,l),
(85,755,l),
(70,525,l),
(199,495,l)
);
}
);
width = 668;
}
);
unicode = 63;
},
{
glyphname = questiondown;
lastChange = "2024-05-01 09:01:14 +0000";
layers = (
{
layerId = m01;
shapes = (
{
closed = 1;
nodes = (
(253,305,l),
(234,204,l),
(302,40,l),
(379,47,l),
(358,-210,l),
(120,-194,l),
(230,-224,l),
(549,-293,l),
(586,43,l),
(392,149,l),
(398,265,l),
(363,313,l)
);
},
{
closed = 1;
nodes = (
(241,582,l),
(236,464,l),
(364,416,l),
(452,529,l),
(462,613,l),
(322,645,l)
);
},
{
closed = 1;
nodes = (
(70,71,l),
(85,-159,l),
(113,-279,l),
(395,-312,l),
(412,-163,l),
(292,-128,l),
(248,35,l),
(199,101,l)
);
}
);
width = 600;
}
);
unicode = 191;
},
{
glyphname = bullet;
lastChange = "2024-04-21 11:25:13 +0000";
layers = (
{
layerId = m01;
shapes = (
{
closed = 1;
nodes = (
(466,375,l),
(411,482,l),
(331,538,l),
(206,460,l),
(223,300,l),
(395,236,l)
);
}
);
width = 668;
}
);
unicode = 8226;
},
{
glyphname = asterisk;
lastChange = "2024-04-21 11:25:13 +0000";
layers = (
{
layerId = m01;
shapes = (
{
closed = 1;
nodes = (
(357,684,l),
(249,715,l),
(259,754,l),
(178,847,l),
(86,787,l),
(133,682,l),
(250,565,l)
);
},
{
closed = 1;
nodes = (
(219,445,l),
(370,511,l),
(300,654,l),
(230,565,l),
(198,589,l),
(82,548,l),
(105,439,l)
);
},
{
closed = 1;
nodes = (
(486,447,l),
(469,612,l),
(312,587,l),
(375,494,l),
(344,471,l),
(347,347,l),
(458,336,l)
);
},
{
closed = 1;
nodes = (
(452,569,l),
(458,679,l),
(328,725,l),
(240,618,l),
(230,539,l),
(371,509,l)
);
},
{
closed = 1;
nodes = (
(397,752,l),
(437,756,l),
(494,865,l),
(406,930,l),
(324,849,l),
(256,698,l),
(405,640,l)
);
},
{
closed = 1;
nodes = (
(656,662,l),
(555,716,l),
(391,736,l),
(380,577,l),
(484,618,l),
(500,581,l),
(620,558,l)
);
}
);
width = 668;
}
);
unicode = 42;
},
{
glyphname = numbersign;
lastChange = "2024-04-28 14:37:35 +0000";
layers = (
{
layerId = m01;
shapes = (
{
closed = 1;
nodes = (
(260,-86,l),
(476,754,l),
(495,818,l),
(495,882,l),
(395,910,l),
(329,792,l),
(105,-47,l),
(149,-115,l)
);
},
{
closed = 1;
nodes = (
(587,-86,l),
(803,754,l),
(822,818,l),
(822,882,l),
(720,877,l),
(656,792,l),
(432,-47,l),
(453,-88,l)
);
},
{
closed = 1;
nodes = (
(132,448,l),
(813,479,l),
(879,479,l),
(941,497,l),
(939,601,l),
(807,631,l),
(125,608,l),
(73,546,l)
);
},
{
closed = 1;
nodes = (
(38,135,l),
(716,154,l),
(783,154,l),
(844,172,l),
(822,287,l),
(711,306,l),
(32,294,l),
(0,197,l)
);
}
);
width = 941;
}
);
unicode = 35;
},
{
glyphname = slash;
lastChange = "2024-04-21 11:25:13 +0000";
layers = (
{
layerId = m01;
shapes = (
{
closed = 1;
nodes = (
(215,-215,l),
(458,764,l),
(477,828,l),
(477,892,l),
(338,917,l),
(272,799,l),
(21,-179,l),
(65,-247,l)
);
}
);
width = 477;
}
);
unicode = 47;
},
{
glyphname = backslash;
lastChange = "2024-04-30 11:37:25 +0000";
layers = (
{
layerId = m01;
shapes = (
{
closed = 1;
nodes = (
(477,-179,l),
(226,799,l),
(160,917,l),
(21,892,l),
(21,828,l),
(40,764,l),
(283,-215,l),
(433,-247,l)
);
}
);
width = 547;
}
);
unicode = 92;
},
{
glyphname = hyphen;
kernLeft = a;
lastChange = "2024-05-01 08:58:22 +0000";
layers = (
{
layerId = m01;
shapes = (
{
closed = 1;
nodes = (
(76,340,l),
(70,244,l),
(117,235,l),
(438,241,l),
(459,292,l),
(466,358,l),
(417,403,l),
(107,381,l)
);
}
);
width = 536;
}
);
unicode = 45;
},
{
glyphname = endash;
kernLeft = a;
lastChange = "2024-05-01 08:58:47 +0000";
layers = (
{
layerId = m01;
shapes = (
{
closed = 1;
nodes = (
(134,340,l),
(128,244,l),
(175,235,l),
(709,241,l),
(730,292,l),
(737,358,l),
(688,403,l),
(165,381,l)
);
}
);
width = 857;
}
);
unicode = 8211;
},
{
glyphname = emdash;
lastChange = "2024-04-27 10:22:47 +0000";
layers = (
{
layerId = m01;
shapes = (
{
closed = 1;
nodes = (
(134,340,l),
(128,244,l),
(175,235,l),
(1032,241,l),
(1053,292,l),
(1060,358,l),
(1011,403,l),
(165,381,l)
);
}
);
width = 1080;
}
);
unicode = 8212;
},
{
glyphname = underscore;
kernLeft = a;
lastChange = "2024-05-01 08:09:37 +0000";
layers = (
{
layerId = m01;
shapes = (
{
closed = 1;
nodes = (
(134,0,l),
(128,-96,l),
(175,-105,l),
(496,-99,l),
(517,-48,l),
(524,18,l),
(475,63,l),
(165,41,l)
);
}
);
width = 600;
}
);
unicode = 95;
},
{
glyphname = parenleft;
lastChange = "2024-04-24 15:49:28 +0000";
layers = (
{
layerId = m01;
shapes = (
{
closed = 1;
nodes = (
(328,892,l),
(407,821,l),
(392,755,l),
(358,700,l),
(264,628,l),
(181,480,l),
(244,63,l),
(358,-9,l),
(420,-95,l),
(328,-175,l),
(123,-71,l),
(50,265,l),
(58,581,l),
(172,823,l)
);
}
);
width = 469;
}
);
unicode = 40;
},
{
glyphname = parenright;
lastChange = "2024-04-24 15:49:51 +0000";
layers = (
{
layerId = m01;
shapes = (
{
closed = 1;
nodes = (
(92,-175,l),
(13,-104,l),
(28,-38,l),
(62,17,l),
(156,89,l),
(239,237,l),
(176,662,l),
(62,734,l),
(0,820,l),
(92,900,l),
(297,796,l),
(370,406,l),
(362,136,l),
(248,-106,l)
);
}
);
width = 550;
}
);
unicode = 41;
},
{
glyphname = braceleft;
lastChange = "2024-04-30 11:34:43 +0000";
layers = (
{
layerId = m01;
shapes = (
{
closed = 1;
nodes = (
(248,879,l),
(166,822,l),
(166,584,l),
(144,466,l),
(62,370,l),
(144,284,l),
(175,149,l),
(129,-33,l),
(209,-127,l),
(293,-151,l),
(481,-151,l),
(454,-58,l),
(330,11,l),
(356,162,l),
(317,269,l),
(228,370,l),
(339,466,l),
(362,584,l),
(333,721,l),
(459,785,l),
(508,879,l)
);
}
);
width = 531;
}
);
unicode = 123;
},
{
glyphname = braceright;
lastChange = "2024-04-30 11:34:27 +0000";
layers = (
{
layerId = m01;
shapes = (
{
closed = 1;
nodes = (
(111,785,l),
(237,721,l),
(208,584,l),
(231,466,l),
(342,370,l),
(253,269,l),
(214,162,l),
(240,11,l),
(116,-58,l),
(89,-151,l),
(277,-151,l),
(361,-127,l),
(441,-33,l),
(395,149,l),
(426,284,l),
(508,370,l),
(426,466,l),
(404,584,l),
(404,822,l),
(322,879,l),
(62,879,l)
);
}
);
width = 532;
}
);
unicode = 125;
},
{
glyphname = bracketleft;
lastChange = "2024-04-30 11:36:22 +0000";
layers = (
{
layerId = m01;
shapes = (
{
closed = 1;
nodes = (
(422,742,l),
(263,650,l),
(275,40,l),
(405,-55,l),
(399,-161,l),
(102,-163,l),
(101,866,l),
(425,879,l)
);
}
);
width = 600;
}
);
unicode = 91;
},
{
glyphname = bracketright;
lastChange = "2024-04-30 11:36:46 +0000";
layers = (
{
layerId = m01;
shapes = (
{
closed = 1;
nodes = (
(425,866,l),
(424,-163,l),
(127,-161,l),
(121,-55,l),
(251,40,l),
(263,650,l),
(104,742,l),
(101,879,l)
);
}
);
width = 600;
}
);
unicode = 93;
},
{
glyphname = quotesinglbase;
lastChange = "2024-04-27 10:13:32 +0000";
layers = (
{
layerId = m01;
shapes = (
{
closed = 1;
nodes = (
(206,-145,l),
(251,28,l),
(90,65,l),
(115,-53,l),
(76,-66,l),
(33,-191,l),
(133,-247,l)
);
},
{
closed = 1;
nodes = (
(251,28,l),
(257,147,l),
(122,197,l),
(30,81,l),
(20,-5,l),
(166,-38,l)
);
}
);
width = 277;
}
);
unicode = 8218;
},
{
glyphname = quotedblleft;
lastChange = "2024-04-27 10:12:27 +0000";
layers = (
{
layerId = m01;
shapes = (
{
closed = 1;
nodes = (
(71,790,l),
(26,617,l),
(187,580,l),
(162,698,l),
(201,711,l),
(244,836,l),
(144,892,l)
);
},
{
closed = 1;
nodes = (
(26,617,l),
(20,498,l),
(155,448,l),
(247,564,l),
(257,650,l),
(111,683,l)
);
},
{
closed = 1;
nodes = (
(354,790,l),
(309,617,l),
(470,580,l),
(445,698,l),
(484,711,l),
(527,836,l),
(427,892,l)
);
},
{
closed = 1;
nodes = (
(309,617,l),
(303,498,l),
(438,448,l),
(530,564,l),
(540,650,l),
(394,683,l)
);
}
);
width = 600;
}
);
unicode = 8220;
},
{
glyphname = quotedblright;
lastChange = "2024-04-27 10:12:44 +0000";
layers = (
{
layerId = m01;
shapes = (
{
closed = 1;
nodes = (
(489,550,l),
(534,723,l),
(373,760,l),
(398,642,l),
(359,629,l),
(316,504,l),
(416,448,l)
);
},
{
closed = 1;
nodes = (
(534,723,l),
(540,842,l),
(405,892,l),
(313,776,l),
(303,690,l),
(449,657,l)
);
},
{
closed = 1;
nodes = (
(206,550,l),
(251,723,l),
(90,760,l),
(115,642,l),
(76,629,l),
(33,504,l),
(133,448,l)
);
},
{
closed = 1;
nodes = (
(251,723,l),
(257,842,l),
(122,892,l),
(30,776,l),
(20,690,l),
(166,657,l)
);
}
);
width = 600;
}
);
unicode = 8221;
},
{
glyphname = quoteleft;
lastChange = "2024-04-27 10:11:04 +0000";
layers = (
{
layerId = m01;
shapes = (
{
closed = 1;
nodes = (
(71,790,l),
(26,617,l),
(187,580,l),
(162,698,l),
(201,711,l),
(244,836,l),
(144,892,l)
);
},
{
closed = 1;
nodes = (
(26,617,l),
(20,498,l),
(155,448,l),
(247,564,l),
(257,650,l),
(111,683,l)
);
}
);
width = 277;
}
);
unicode = 8216;
},
{
glyphname = quoteright;
lastChange = "2024-04-27 10:10:43 +0000";
layers = (
{
layerId = m01;
shapes = (
{
closed = 1;
nodes = (
(206,550,l),
(251,723,l),
(90,760,l),
(115,642,l),
(76,629,l),
(33,504,l),
(133,448,l)
);
},
{
closed = 1;
nodes = (
(251,723,l),
(257,842,l),
(122,892,l),
(30,776,l),
(20,690,l),
(166,657,l)
);
}
);
width = 277;
}
);
unicode = 8217;
},
{
glyphname = guillemetleft;
lastChange = "2024-04-27 10:17:43 +0000";
layers = (
{
layerId = m01;
shapes = (
{
closed = 1;
nodes = (
(275,96,l),
(233,94,l),
(40,267,l),
(20,330,l),
(249,571,l),
(300,571,l),
(357,507,l),
(339,435,l),
(202,322,l),
(357,197,l),
(357,139,l)
);
},
{
closed = 1;
nodes = (
(563,116,l),
(521,114,l),
(328,267,l),
(308,330,l),
(537,571,l),
(588,571,l),
(645,507,l),
(627,435,l),
(490,322,l),
(624,223,l),
(624,165,l)
);
}
);
width = 665;
}
);
unicode = 171;
},
{
glyphname = guillemetright;
lastChange = "2024-04-27 10:16:57 +0000";
layers = (
{
layerId = m01;
shapes = (
{
closed = 1;
nodes = (
(390,528,l),
(432,530,l),
(625,357,l),
(645,294,l),
(416,53,l),
(365,53,l),
(308,117,l),
(326,189,l),
(463,302,l),
(308,427,l),
(308,485,l)
);
},
{
closed = 1;
nodes = (
(102,508,l),
(144,510,l),
(337,357,l),
(357,294,l),
(128,53,l),
(77,53,l),
(20,117,l),
(38,189,l),
(175,302,l),
(41,401,l),
(41,459,l)
);
}
);
width = 663;
}
);
unicode = 187;
},
{
glyphname = guilsinglleft;
lastChange = "2024-04-27 10:19:44 +0000";
layers = (
{
layerId = m01;
shapes = (
{
closed = 1;
nodes = (
(382,427,l),
(274,302,l),
(364,189,l),
(382,117,l),
(325,53,l),
(274,53,l),
(45,294,l),
(65,357,l),
(258,530,l),
(300,528,l),
(382,485,l)
);
}
);
width = 382;
}
);
unicode = 8249;
},
{
glyphname = guilsinglright;
lastChange = "2024-04-27 10:19:05 +0000";
layers = (
{
layerId = m01;
shapes = (
{
closed = 1;
nodes = (
(102,528,l),
(144,530,l),
(337,357,l),
(357,294,l),
(128,53,l),
(77,53,l),
(20,117,l),
(38,189,l),
(128,302,l),
(20,427,l),
(20,485,l)
);
}
);
width = 377;
}
);
unicode = 8250;
},
{
glyphname = quotesingle;
lastChange = "2024-04-23 13:15:24 +0000";
layers = (
{
layerId = m01;
shapes = (
{
closed = 1;
nodes = (
(206,550,l),
(251,723,l),
(90,760,l),
(115,642,l),
(76,629,l),
(33,504,l),
(133,448,l)
);
},
{
closed = 1;
nodes = (
(251,723,l),
(257,842,l),
(122,892,l),
(30,776,l),
(20,690,l),
(166,657,l)
);
}
);
width = 260;
}
);
unicode = 39;
},
{
glyphname = at;
lastChange = "2024-04-24 16:01:22 +0000";
layers = (
{
layerId = m01;
shapes = (
{
closed = 1;
nodes = (
(585,114,l),
(700,177,l),
(709,313,l),
(602,283,l),
(515,260,l),
(451,330,l),
(449,495,l),
(612,466,l),
(687,402,l),
(691,549,l),
(559,609,l),
(457,560,l),
(300,469,l),
(307,242,l),
(377,80,l)
);
},
{
closed = 1;
nodes = (
(905,92,l),
(939,190,l),
(897,190,l),
(841,272,l),
(851,583,l),
(678,609,l),
(669,522,l),
(671,233,l),
(641,159,l),
(671,102,l)
);
},
{
closed = 1;
nodes = (
(905,92,l),
(1009,105,l),
(1051,177,l),
(1115,288,l),
(1141,558,l),
(1089,751,l),
(843,873,l),
(477,889,l),
(347,835,l),
(144,662,l),
(60,401,l),
(100,150,l),
(224,-55,l),
(357,-136,l),
(663,-184,l),
(963,-131,l),
(963,-12,l),
(870,49,l),
(714,-2,l),
(501,-28,l),
(406,-12,l),
(298,97,l),
(231,271,l),
(226,492,l),
(393,688,l),
(704,753,l),
(891,670,l),
(953,495,l),
(953,375,l),
(952,227,l),
(939,190,l)
);
},
{
closed = 1;
nodes = (
(724,543,l),
(809,429,l),
(885,471,l),
(905,516,l),
(886,611,l),
(678,609,l)
);
}
);
width = 1220;
}
);
unicode = 64;
},
{
glyphname = ampersand;
lastChange = "2024-04-21 11:25:13 +0000";
layers = (
{
layerId = m01;
shapes = (
{
closed = 1;
nodes = (
(799,3,l),
(818,84,l),
(809,178,l),
(400,458,l),
(267,609,l),
(259,810,l),
(102,825,l),
(37,704,l),
(94,576,l),
(207,434,l),
(490,227,l),
(676,-12,l)
);
},
{
closed = 1;
nodes = (
(542,75,l),
(581,155,l),
(676,253,l),
(762,315,l),
(800,383,l),
(727,483,l),
(611,414,l),
(490,302,l),
(337,78,l),
(219,136,l),
(239,291,l),
(285,243,l),
(544,494,l),
(625,655,l),
(519,608,l),
(442,619,l),
(240,487,l),
(48,286,l),
(0,126,l),
(55,6,l),
(243,-72,l)
);
},
{
closed = 1;
nodes = (
(656,616,l),
(676,719,l),
(622,818,l),
(253,895,l),
(119,755,l),
(180,617,l),
(308,705,l),
(399,746,l),
(436,681,l),
(390,548,l)
);
}
);
width = 818;
}
);
unicode = 38;
},
{
glyphname = section;
lastChange = "2024-05-01 09:05:00 +0000";
layers = (
{
layerId = m01;
shapes = (
{
closed = 1;
nodes = (
(234,367,l),
(309,421,l),
(290,642,l),
(350,735,l),
(92,674,l),
(108,367,l)
);
},
{
closed = 1;
nodes = (
(612,461,l),
(509,542,l),
(111,447,l),
(114,440,l),
(467,396,l)
);
},
{
closed = 1;
nodes = (
(588,171,l),
(612,461,l),
(455,514,l),
(428,180,l)
);
},
{
closed = 1;
nodes = (
(585,612,l),
(644,674,l),
(624,785,l),
(401,777,l),
(158,725,l),
(220,586,l),
(418,648,l),
(456,566,l)
);
},
{
closed = 1;
nodes = (
(209,166,l),
(286,140,l),
(267,361,l),
(354,447,l),
(104,395,l),
(118,168,l)
);
},
{
closed = 1;
nodes = (
(565,-47,l),
(277,41,l),
(270,77,l),
(220,88,l),
(52,23,l),
(51,-120,l),
(337,-137,l)
);
},
{
closed = 1;
nodes = (
(589,180,l),
(486,261,l),
(118,166,l),
(121,159,l),
(444,115,l)
);
},
{
closed = 1;
nodes = (
(565,-47,l),
(589,180,l),
(432,233,l),
(376,-116,l)
);
}
);
width = 664;
}
);
unicode = 167;
},
{
glyphname = bar;
lastChange = "2024-04-30 13:44:17 +0000";
layers = (
{
layerId = m01;
shapes = (
{
closed = 1;
nodes = (
(161,864,l),
(278,825,l),
(273,-219,l),
(148,-232,l),
(100,-135,l),
(107,818,l)
);
}
);
width = 378;
}
);
unicode = 124;
},
{
glyphname = dollar;
lastChange = "2024-05-01 09:08:08 +0000";
layers = (
{
layerId = m01;
shapes = (
{
closed = 1;
nodes = (
(256,809,l),
(409,867,l),
(82,756,l),
(54,391,l),
(194,355,l),
(272,391,l)
);
},
{
closed = 1;
nodes = (
(607,28,l),
(254,104,l),
(232,142,l),
(177,159,l),
(42,104,l),
(41,-39,l),
(283,-81,l)
);
},
{
closed = 1;
nodes = (
(607,28,l),
(633,432,l),
(459,394,l),
(310,-60,l)
);
},
{
closed = 1;
nodes = (
(633,432,l),
(530,513,l),
(56,418,l),
(53,338,l),
(482,294,l)
);
},
{
closed = 1;
nodes = (
(607,616,l),
(652,764,l),
(632,875,l),
(409,867,l),
(166,815,l),
(147,753,l),
(228,676,l),
(426,738,l),
(478,570,l)
);
},
{
closed = 1;
nodes = (
(241,-159,l),
(349,-177,l),
(396,-140,l),
(409,39,l),
(358,58,l),
(254,71,l)
);
},
{
closed = 1;
nodes = (
(463,968,l),
(355,986,l),
(308,949,l),
(308,724,l),
(364,757,l),
(450,738,l)
);
}
);
width = 672;
}
);
unicode = 36;
},
{
glyphname = euro;
lastChange = "2024-05-01 09:11:17 +0000";
layers = (
{
layerId = m01;
shapes = (
{
closed = 1;
nodes = (
(92,551,l),
(172,44,l),
(441,74,l),
(303,204,l),
(281,321,l),
(338,628,l),
(383,673,l),
(511,828,l),
(404,868,l),
(172,745,l)
);
},
{
closed = 1;
nodes = (
(741,92,l),
(786,204,l),
(700,241,l),
(565,118,l),
(325,75,l),
(172,44,l),
(234,-25,l),
(513,-37,l)
);
},
{
closed = 1;
nodes = (
(470,705,l),
(634,618,l),
(741,673,l),
(741,782,l),
(612,787,l)
);
},
{
closed = 1;
nodes = (
(565,877,l),
(250,754,l),
(155,622,l),
(217,575,l),
(741,782,l),
(620,849,l)
);
},
{
closed = 1;
nodes = (
(20,423,l),
(48,376,l),
(530,411,l),
(562,473,l),
(565,562,l),
(35,496,l)
);
},
{
closed = 1;
nodes = (
(46,251,l),
(74,204,l),
(487,223,l),
(534,301,l),
(534,363,l),
(61,324,l)
);
}
);
width = 806;
}
);
unicode = 8364;
},
{
glyphname = plus;
lastChange = "2024-04-23 12:08:02 +0000";
layers = (
{
layerId = m01;
shapes = (
{
closed = 1;
nodes = (
(134,340,l),
(128,244,l),
(175,235,l),
(496,241,l),
(517,292,l),
(524,358,l),
(475,403,l),
(165,381,l)
);
},
{
closed = 1;
nodes = (
(347,511,l),
(251,517,l),
(242,470,l),
(248,149,l),
(299,128,l),
(365,121,l),
(410,170,l),
(388,480,l)
);
}
);
width = 600;
}
);
unicode = 43;
},
{
glyphname = equal;
lastChange = "2024-04-24 16:05:31 +0000";
layers = (
{
layerId = m01;
shapes = (
{
closed = 1;
nodes = (
(134,505,l),
(128,409,l),
(175,400,l),
(496,406,l),
(517,457,l),
(524,523,l),
(475,568,l),
(165,546,l)
);
},
{
closed = 1;
nodes = (
(518,197,l),
(524,293,l),
(477,302,l),
(156,296,l),
(135,245,l),
(128,179,l),
(177,134,l),
(487,156,l)
);
}
);
width = 600;
}
);
unicode = 61;
},
{
glyphname = greater;
lastChange = "2024-04-30 13:43:05 +0000";
layers = (
{
layerId = m01;
shapes = (
{
closed = 1;
nodes = (
(26,498,l),
(65,457,l),
(379,286,l),
(69,150,l),
(30,54,l),
(64,8,l),
(121,-6,l),
(667,216,l),
(700,275,l),
(162,612,l),
(62,560,l)
);
}
);
width = 700;
}
);
unicode = 62;
},
{
glyphname = less;
lastChange = "2024-04-30 13:43:30 +0000";
layers = (
{
layerId = m01;
shapes = (
{
closed = 1;
nodes = (
(700,108,l),
(661,149,l),
(347,320,l),
(657,456,l),
(696,552,l),
(662,598,l),
(605,612,l),
(59,390,l),
(26,331,l),
(564,-6,l),
(664,46,l)
);
}
);
width = 700;
}
);
unicode = 60;
},
{
glyphname = percent;
lastChange = "2024-04-21 11:25:13 +0000";
layers = (
{
layerId = m01;
shapes = (
{
closed = 1;
nodes = (
(406,-215,l),
(821,732,l),
(840,796,l),
(840,860,l),
(701,885,l),
(635,767,l),
(212,-179,l),
(256,-247,l)
);
},
{
closed = 1;
nodes = (
(405,383,l),
(423,452,l),
(391,523,l),
(62,455,l),
(118,426,l),
(323,342,l)
);
},
{
closed = 1;
nodes = (
(164,352,l),
(250,433,l),
(198,790,l),
(140,804,l),
(78,783,l),
(0,660,l),
(26,337,l)
);
},
{
closed = 1;
nodes = (
(1014,-139,l),
(1080,-30,l),
(928,-5,l),
(614,10,l),
(614,-116,l),
(886,-164,l)
);
},
{
closed = 1;
nodes = (
(720,-99,l),
(814,127,l),
(839,294,l),
(665,290,l),
(552,-85,l),
(614,-116,l)
);
},
{
closed = 1;
nodes = (
(455,753,l),
(455,879,l),
(195,873,l),
(67,848,l),
(1,739,l),
(153,714,l)
);
},
{
closed = 1;
nodes = (
(450,415,l),
(517,848,l),
(455,879,l),
(349,862,l),
(294,666,l),
(276,411,l)
);
},
{
closed = 1;
nodes = (
(1003,-74,l),
(1081,49,l),
(1107,370,l),
(969,355,l),
(883,274,l),
(883,-81,l),
(941,-95,l)
);
},
{
closed = 1;
nodes = (
(1071,252,l),
(1015,403,l),
(792,363,l),
(710,322,l),
(692,253,l),
(724,182,l)
);
}
);
width = 1107;
}
);
unicode = 37;
},
{
glyphname = upArrow;
lastChange = "2024-04-30 13:18:59 +0000";
layers = (
{
layerId = m01;
shapes = (
{
closed = 1;
nodes = (
(346,711,l),
(110,387,l),
(40,284,l),
(70,191,l),
(185,170,l),
(542,656,l),
(468,768,l)
);
},
{
closed = 1;
nodes = (
(353,597,l),
(483,384,l),
(697,167,l),
(806,210,l),
(825,296,l),
(542,656,l),
(461,697,l),
(322,656,l)
);
},
{
closed = 1;
nodes = (
(320,-89,l),
(422,-78,l),
(542,27,l),
(462,465,l),
(506,611,l),
(432,557,l),
(312,457,l),
(359,443,l),
(292,-35,l)
);
}
);
width = 865;
}
);
unicode = 8593;
},
{
glyphname = northEastArrow;
lastChange = "2024-04-30 13:40:14 +0000";
layers = (
{
layerId = m01;
shapes = (
{
closed = 1;
nodes = (
(697,617,l),
(297,588,l),
(173,575,l),
(121,492,l),
(179,390,l),
(781,432,l),
(819,560,l)
);
},
{
closed = 1;
nodes = (
(614,538,l),
(535,301,l),
(508,-3,l),
(611,-58,l),
(689,-17,l),
(781,432,l),
(760,520,l),
(639,599,l)
);
},
{
closed = 1;
nodes = (
(69,120,l),
(143,49,l),
(301,25,l),
(584,369,l),
(723,430,l),
(634,452,l),
(481,479,l),
(500,434,l),
(92,176,l)
);
}
);
width = 819;
}
);
unicode = 8599;
},
{
glyphname = rightArrow;
lastChange = "2024-04-30 13:34:59 +0000";
layers = (
{
layerId = m01;
shapes = (
{
closed = 1;
nodes = (
(804,426,l),
(480,662,l),
(377,732,l),
(284,702,l),
(263,587,l),
(749,230,l),
(861,304,l)
);
},
{
closed = 1;
nodes = (
(690,419,l),
(477,289,l),
(260,75,l),
(303,-34,l),
(389,-53,l),
(749,230,l),
(790,311,l),
(749,450,l)
);
},
{
closed = 1;
nodes = (
(4,452,l),
(15,350,l),
(120,230,l),
(558,310,l),
(704,266,l),
(650,340,l),
(550,460,l),
(536,413,l),
(58,480,l)
);
}
);
width = 861;
}
);
unicode = 8594;
},
{
glyphname = southEastArrow;
lastChange = "2024-04-30 13:40:32 +0000";
layers = (
{
layerId = m01;
shapes = (
{
closed = 1;
nodes = (
(781,127,l),
(179,169,l),
(121,67,l),
(173,-16,l),
(297,-29,l),
(697,-58,l),
(819,-1,l)
);
},
{
closed = 1;
nodes = (
(760,39,l),
(781,127,l),
(689,576,l),
(611,617,l),
(508,562,l),
(535,258,l),
(614,21,l),
(639,-40,l)
);
},
{
closed = 1;
nodes = (
(500,125,l),
(481,80,l),
(634,107,l),
(723,129,l),
(584,190,l),
(301,534,l),
(143,510,l),
(69,439,l),
(92,383,l)
);
}
);
width = 819;
}
);
unicode = 8600;
},
{
glyphname = downArrow;
lastChange = "2024-04-30 13:35:17 +0000";
layers = (
{
layerId = m01;
shapes = (
{
closed = 1;
nodes = (
(519,-32,l),
(755,292,l),
(825,395,l),
(795,488,l),
(680,509,l),
(323,23,l),
(397,-89,l)
);
},
{
closed = 1;
nodes = (
(512,82,l),
(382,295,l),
(168,512,l),
(59,469,l),
(40,383,l),
(323,23,l),
(404,-18,l),
(543,23,l)
);
},
{
closed = 1;
nodes = (
(545,768,l),
(443,757,l),
(323,652,l),
(403,214,l),
(359,68,l),
(433,122,l),
(553,222,l),
(506,236,l),
(573,714,l)
);
}
);
width = 825;
}
);
unicode = 8595;
},
{
glyphname = southWestArrow;
lastChange = "2024-04-30 13:40:48 +0000";
layers = (
{
layerId = m01;
shapes = (
{
closed = 1;
nodes = (
(191,-58,l),
(591,-29,l),
(715,-16,l),
(767,67,l),
(709,169,l),
(107,127,l),
(69,-1,l)
);
},
{
closed = 1;
nodes = (
(274,21,l),
(353,258,l),
(380,562,l),
(277,617,l),
(199,576,l),
(107,127,l),
(128,39,l),
(249,-40,l)
);
},
{
closed = 1;
nodes = (
(819,439,l),
(745,510,l),
(587,534,l),
(304,190,l),
(165,129,l),
(254,107,l),
(407,80,l),
(388,125,l),
(796,383,l)
);
}
);
width = 819;
}
);
unicode = 8601;
},
{
glyphname = leftArrow;
lastChange = "2024-04-30 13:35:37 +0000";
layers = (
{
layerId = m01;
shapes = (
{
closed = 1;
nodes = (
(116,230,l),
(602,587,l),
(581,702,l),
(488,732,l),
(385,662,l),
(61,426,l),
(4,304,l)
);
},
{
closed = 1;
nodes = (
(75,311,l),
(116,230,l),
(476,-53,l),
(562,-34,l),
(605,75,l),
(388,289,l),
(175,419,l),
(116,450,l)
);
},
{
closed = 1;
nodes = (
(329,413,l),
(315,460,l),
(215,340,l),
(161,266,l),
(307,310,l),
(745,230,l),
(850,350,l),
(861,452,l),
(807,480,l)
);
}
);
width = 861;
}
);
unicode = 8592;
},
{
glyphname = northWestArrow;
lastChange = "2024-04-30 13:41:03 +0000";
layers = (
{
layerId = m01;
shapes = (
{
closed = 1;
nodes = (
(107,432,l),
(709,390,l),
(767,492,l),
(715,575,l),
(591,588,l),
(191,617,l),
(69,560,l)
);
},
{
closed = 1;
nodes = (
(128,520,l),
(107,432,l),
(199,-17,l),
(277,-58,l),
(380,-3,l),
(353,301,l),
(274,538,l),
(249,599,l)
);
},
{
closed = 1;
nodes = (
(388,434,l),
(407,479,l),
(254,452,l),
(165,430,l),
(304,369,l),
(587,25,l),
(745,49,l),
(819,120,l),
(796,176,l)
);
}
);
width = 819;
}
);
unicode = 8598;
},
{
glyphname = leftRightArrow;
lastChange = "2024-04-30 13:38:13 +0000";
layers = (
{
layerId = m01;
shapes = (
{
closed = 1;
nodes = (
(61,253,l),
(385,17,l),
(488,-53,l),
(581,-23,l),
(602,92,l),
(116,449,l),
(4,375,l)
);
},
{
closed = 1;
nodes = (
(175,260,l),
(388,390,l),
(605,604,l),
(562,713,l),
(476,732,l),
(116,449,l),
(75,368,l),
(116,229,l)
);
},
{
closed = 1;
nodes = (
(668,201,l),
(865,329,l),
(662,449,l),
(307,369,l),
(161,413,l),
(215,339,l),
(315,219,l),
(329,266,l),
(553,230,l)
);
},
{
closed = 1;
nodes = (
(1274,449,l),
(788,92,l),
(809,-23,l),
(902,-53,l),
(1005,17,l),
(1329,253,l),
(1386,375,l)
);
},
{
closed = 1;
nodes = (
(1315,368,l),
(1274,449,l),
(914,732,l),
(828,713,l),
(785,604,l),
(1002,390,l),
(1215,260,l),
(1274,229,l)
);
},
{
closed = 1;
nodes = (
(1168,269,l),
(1182,222,l),
(1282,342,l),
(1336,416,l),
(1190,372,l),
(674,449,l),
(564,332,l),
(553,230,l),
(792,232,l)
);
}
);
width = 1386;
}
);
unicode = 8596;
},
{
glyphname = upDownArrow;
lastChange = "2024-04-30 13:39:21 +0000";
layers = (
{
layerId = m01;
shapes = (
{
closed = 1;
nodes = (
(479,-294,l),
(715,30,l),
(785,133,l),
(755,226,l),
(640,247,l),
(283,-239,l),
(357,-351,l)
);
},
{
closed = 1;
nodes = (
(472,-180,l),
(342,33,l),
(128,250,l),
(19,207,l),
(0,121,l),
(283,-239,l),
(364,-280,l),
(503,-239,l)
);
},
{
closed = 1;
nodes = (
(487,320,l),
(403,510,l),
(301,226,l),
(363,-48,l),
(319,-194,l),
(393,-140,l),
(513,-40,l),
(466,-26,l),
(502,198,l)
);
},
{
closed = 1;
nodes = (
(283,792,l),
(640,306,l),
(755,327,l),
(785,420,l),
(715,523,l),
(479,847,l),
(357,904,l)
);
},
{
closed = 1;
nodes = (
(364,833,l),
(283,792,l),
(0,432,l),
(19,346,l),
(128,303,l),
(342,520,l),
(472,733,l),
(503,792,l)
);
},
{
closed = 1;
nodes = (
(463,686,l),
(510,700,l),
(390,800,l),
(316,854,l),
(360,708,l),
(301,226,l),
(400,82,l),
(502,198,l),
(500,310,l)
);
}
);
width = 785;
}
);
unicode = 8597;
},
{
glyphname = dieresis;
lastChange = "2024-04-21 11:25:13 +0000";
layers = (
{
anchors = (
{
name = _top;
pos = (221,582);
}
);
layerId = m01;
shapes = (
{
closed = 1;
nodes = (
(399,628,l),
(464,707,l),
(436,848,l),
(351,840,l),
(236,756,l),
(280,626,l)
);
},
{
closed = 1;
nodes = (
(113,615,l),
(228,698,l),
(184,829,l),
(67,827,l),
(0,748,l),
(29,607,l)
);
}
);
width = 464;
}
);
unicode = 168;
},
{
glyphname = grave;
lastChange = "2024-04-21 11:25:13 +0000";
layers = (
{
anchors = (
{
name = _top;
pos = (161,560);
}
);
layerId = m01;
shapes = (
{
closed = 1;
nodes = (
(290,674,l),
(219,789,l),
(100,821,l),
(52,728,l),
(181,612,l),
(281,603,l)
);
}
);
width = 300;
}
);
unicode = 96;
},
{
glyphname = acute;
lastChange = "2024-04-21 11:25:13 +0000";
layers = (
{
anchors = (
{
name = _top;
pos = (146,560);
}
);
layerId = m01;
shapes = (
{
closed = 1;
nodes = (
(161,612,l),
(290,728,l),
(242,821,l),
(123,789,l),
(52,674,l),
(61,603,l)
);
}
);
width = 300;
}
);
unicode = 180;
},
{
glyphname = hungarumlaut;
lastChange = "2024-05-01 09:18:16 +0000";
layers = (
{
anchors = (
{
name = _top;
pos = (178,633);
}
);
layerId = m01;
shapes = (
{
closed = 1;
nodes = (
(24,657,l),
(133,657,l),
(256,855,l),
(207,933,l),
(142,926,l),
(0,707,l)
);
},
{
closed = 1;
nodes = (
(227,657,l),
(316,657,l),
(454,835,l),
(410,933,l),
(305,924,l),
(203,707,l)
);
}
);
width = 454;
}
);
unicode = 733;
},
{
glyphname = circumflex;
lastChange = "2024-04-21 11:25:13 +0000";
layers = (
{
anchors = (
{
name = _top;
pos = (236,569);
}
);
layerId = m01;
shapes = (
{
closed = 1;
nodes = (
(415,603,l),
(458,662,l),
(315,815,l),
(182,820,l),
(205,697,l),
(346,592,l)
);
},
{
closed = 1;
nodes = (
(225,665,l),
(248,788,l),
(115,783,l),
(-8,656,l),
(35,597,l),
(104,586,l)
);
}
);
width = 466;
}
);
unicode = 710;
},
{
glyphname = caron;
lastChange = "2024-04-21 11:25:13 +0000";
layers = (
{
anchors = (
{
name = _top;
pos = (219,575);
}
);
layerId = m01;
shapes = (
{
closed = 1;
nodes = (
(323,621,l),
(466,774,l),
(423,833,l),
(354,844,l),
(213,739,l),
(190,616,l)
);
},
{
closed = 1;
nodes = (
(233,771,l),
(112,850,l),
(43,839,l),
(0,780,l),
(123,653,l),
(256,648,l)
);
}
);
width = 466;
}
);
unicode = 711;
},
{
glyphname = ring;
lastChange = "2024-04-28 13:30:27 +0000";
layers = (
{
anchors = (
{
name = _top;
pos = (160,592);
}
);
layerId = m01;
shapes = (
{
closed = 1;
nodes = (
(145,653,l),
(129,721,l),
(170,790,l),
(123,807,l),
(27,791,l),
(18,690,l),
(78,609,l)
);
},
{
closed = 1;
nodes = (
(308,650,l),
(213,712,l),
(170,678,l),
(125,697,l),
(78,609,l),
(165,603,l),
(261,600,l)
);
},
{
closed = 1;
nodes = (
(308,727,l),
(312,803,l),
(194,787,l),
(194,717,l),
(188,690,l),
(195,668,l),
(308,650,l)
);
},
{
closed = 1;
nodes = (
(179,774,l),
(312,803,l),
(311,854,l),
(135,847,l),
(43,833,l),
(46,760,l)
);
}
);
width = 312;
}
);
unicode = 730;
},
{
glyphname = tilde;
lastChange = "2024-04-28 13:17:57 +0000";
layers = (
{
anchors = (
{
name = _top;
pos = (208,613);
}
);
layerId = m01;
shapes = (
{
closed = 1;
nodes = (
(63,630,l),
(91,636,l),
(108,686,l),
(147,726,l),
(197,679,l),
(259,633,l),
(298,644,l),
(364,739,l),
(364,865,l),
(323,886,l),
(253,809,l),
(191,850,l),
(124,894,l),
(39,843,l),
(0,672,l)
);
}
);
width = 364;
}
);
unicode = 732;
},
{
glyphname = macron;
lastChange = "2024-05-01 09:37:07 +0000";
layers = (
{
anchors = (
{
name = _top;
pos = (143,633);
}
);
layerId = m01;
shapes = (
{
closed = 1;
nodes = (
(-71,766,l),
(-43,658,l),
(186,650,l),
(317,658,l),
(354,725,l),
(316,821,l),
(-23,821,l)
);
}
);
width = 304;
}
);
unicode = 175;
},
{
glyphname = cedilla;
lastChange = "2024-04-21 11:25:13 +0000";
layers = (
{
anchors = (
{
name = _bottom;
pos = (185,88);
}
);
layerId = m01;
shapes = (
{
closed = 1;
nodes = (
(292,-297,l),
(292,-239,l),
(273,-177,l),
(202,-148,l),
(168,-199,l),
(109,-185,l),
(109,-111,l),
(168,-146,l),
(257,-67,l),
(244,119,l),
(61,129,l),
(62,29,l),
(126,-20,l),
(0,-61,l),
(-25,-199,l),
(22,-266,l),
(126,-307,l)
);
}
);
width = 300;
}
);
unicode = 184;
},
{
export = 0;
glyphname = _i;
lastChange = "2024-04-21 11:25:13 +0000";
layers = (
{
anchors = (
{
name = right;
pos = (371,413);
}
);
layerId = m01;
shapes = (
{
closed = 1;
nodes = (
(384,15,l),
(382,105,l),
(327,181,l),
(328,413,l),
(337,658,l),
(31,606,l),
(20,509,l),
(51,465,l),
(98,451,l),
(97,163,l),
(57,119,l),
(57,37,l),
(128,-26,l)
);
}
);
width = 677;
}
);
},
